{"glyphs":{"0":{"ha":815,"x_min":81,"x_max":735,"o":"m 201 408 q 217 241 201 307 q 261 139 233 176 q 327 88 289 102 q 409 74 365 74 q 490 88 452 74 q 555 139 528 102 q 600 241 583 176 q 616 408 616 307 q 600 577 616 511 q 555 680 583 642 q 490 731 528 717 q 409 745 452 745 q 327 731 365 745 q 261 680 289 717 q 217 577 233 642 q 201 408 201 511 m 735 408 q 711 206 735 288 q 644 74 687 124 q 541 1 601 23 q 408 -21 480 -21 q 275 1 335 -21 q 172 74 215 23 q 104 206 128 124 q 81 408 81 288 q 104 611 81 529 q 172 744 128 694 q 275 817 215 795 q 408 839 335 839 q 541 817 480 839 q 644 744 601 795 q 711 611 687 694 q 735 408 735 529 z "},"1":{"ha":656,"x_min":54,"x_max":637,"o":"m 54 567 l 354 818 l 423 818 l 420 96 l 637 96 l 637 0 l 82 0 l 82 96 l 313 96 l 314 656 l 115 492 l 54 567 z "},"2":{"ha":739,"x_min":57,"x_max":697,"o":"m 546 96 l 618 211 l 697 170 l 594 0 l 80 0 l 57 61 q 95 156 69 114 q 154 233 120 199 q 226 297 187 268 q 304 352 265 326 q 378 405 342 378 q 442 459 414 431 q 487 521 470 488 q 504 596 503 555 q 496 647 505 621 q 467 695 487 673 q 413 731 446 717 q 332 745 380 745 q 255 731 289 745 q 197 703 221 718 q 149 661 170 684 l 69 736 q 76 744 69 736 q 97 763 83 751 q 133 787 111 774 q 184 812 155 801 q 250 831 213 823 q 330 839 286 839 q 452 821 398 839 q 544 770 506 802 q 602 693 581 737 q 622 596 622 648 q 606 511 622 550 q 563 440 589 473 q 500 378 536 407 q 428 322 465 349 q 352 270 390 296 q 282 217 315 244 q 227 160 250 189 q 193 96 203 130 l 546 96 z "},"3":{"ha":718,"x_min":48,"x_max":640,"o":"m 119 154 q 136 142 120 154 q 181 115 152 130 q 250 87 210 100 q 341 75 291 75 q 420 87 386 75 q 476 119 454 98 q 511 166 499 139 q 522 224 522 193 q 511 289 522 262 q 483 332 500 315 q 442 357 465 349 q 395 369 419 366 q 349 373 372 373 q 309 374 327 374 l 245 374 l 245 469 l 340 469 q 407 476 377 469 q 459 499 437 484 q 491 541 480 515 q 503 604 503 567 q 486 672 503 646 q 445 715 470 699 q 390 736 420 730 q 332 743 359 743 q 257 732 290 744 q 201 707 224 721 q 167 681 179 693 q 154 668 155 669 l 72 743 q 79 751 72 743 q 100 769 86 758 q 136 791 115 779 q 186 814 157 804 q 252 832 216 825 q 334 839 289 839 q 450 822 397 839 q 541 775 503 806 q 600 701 578 744 q 621 604 621 657 q 608 538 621 567 q 576 487 595 509 q 532 451 556 465 q 486 429 509 437 q 540 408 513 424 q 590 366 568 392 q 626 305 612 340 q 640 225 640 269 q 624 135 640 179 q 571 56 607 90 q 477 0 535 21 q 337 -21 419 -21 q 212 -6 266 -21 q 122 27 159 9 q 48 75 79 48 l 119 154 z "},"4":{"ha":734,"x_min":34,"x_max":678,"o":"m 547 229 l 547 96 l 673 96 l 673 0 l 291 0 l 291 96 l 437 96 l 437 229 l 35 229 l 34 281 l 298 864 l 389 812 q 223 467 268 560 q 166 349 178 374 q 155 323 155 324 l 437 323 l 437 697 l 548 697 l 547 323 l 678 325 l 678 229 l 547 229 z "},"5":{"ha":696,"x_min":71,"x_max":629,"o":"m 585 818 l 585 721 l 216 721 l 216 500 q 273 529 239 517 q 351 541 307 541 q 443 529 403 541 q 515 498 484 517 q 568 452 546 478 q 603 398 589 427 q 623 339 616 369 q 629 282 629 309 q 610 164 629 220 q 553 68 591 109 q 458 3 515 26 q 325 -21 401 -21 q 217 -8 264 -21 q 138 21 170 5 q 71 64 100 39 l 138 140 q 152 130 138 140 q 189 107 165 119 q 249 84 214 95 q 329 74 284 74 q 397 84 364 74 q 455 119 430 95 q 496 183 481 144 q 511 281 511 222 q 497 358 511 326 q 461 409 484 389 q 410 437 439 429 q 351 446 381 446 q 271 436 304 446 q 215 414 237 427 q 181 392 193 402 q 168 379 170 381 l 168 378 l 104 408 l 104 818 l 585 818 z "},"6":{"ha":764,"x_min":77,"x_max":698,"o":"m 448 745 q 362 730 399 745 q 298 691 326 716 q 252 634 271 667 q 222 565 233 602 q 204 489 210 528 q 198 412 199 450 q 233 449 212 431 q 283 481 255 467 q 347 504 312 495 q 420 513 381 513 q 523 500 473 513 q 611 458 572 488 q 674 376 650 427 q 698 245 698 324 q 692 192 698 221 q 674 133 687 163 q 638 76 661 104 q 583 26 616 48 q 503 -8 549 5 q 396 -21 457 -21 q 255 7 315 -21 q 156 91 195 36 q 96 225 116 146 q 77 407 77 305 q 102 575 77 496 q 176 712 128 654 q 292 805 224 771 q 445 839 360 839 q 531 829 492 839 q 598 807 570 819 q 659 775 631 793 l 608 694 q 592 702 607 694 q 553 719 576 709 q 502 736 530 728 q 448 745 474 745 m 420 418 q 347 411 381 418 q 284 392 313 405 q 234 361 256 379 q 201 319 213 342 q 227 191 207 239 q 275 117 246 142 q 337 82 303 91 q 406 74 372 74 q 485 90 452 74 q 540 130 518 105 q 573 185 562 155 q 584 245 584 216 q 544 372 584 327 q 420 418 503 418 z "},"7":{"ha":635,"x_min":27,"x_max":623,"o":"m 27 657 l 58 818 l 623 818 l 623 758 q 494 557 547 660 q 409 355 442 454 q 360 165 376 256 q 340 0 345 74 l 210 0 q 241 164 219 78 q 298 341 262 250 q 384 529 333 433 q 501 722 434 625 l 142 722 l 123 636 l 27 657 z "},"8":{"ha":738,"x_min":80,"x_max":658,"o":"m 368 839 q 475 824 425 839 q 562 779 525 808 q 621 705 600 749 q 643 604 643 661 q 634 546 643 575 q 607 493 625 517 q 563 450 589 468 q 504 422 537 431 q 565 399 537 417 q 614 355 593 382 q 646 296 635 329 q 658 227 658 263 q 634 118 658 164 q 570 41 610 72 q 478 -6 530 9 q 369 -21 426 -21 q 260 -6 312 -21 q 168 41 208 9 q 104 118 127 72 q 80 227 80 164 q 92 296 80 263 q 124 355 103 329 q 173 399 144 382 q 235 422 201 417 q 176 450 201 431 q 132 493 150 468 q 105 546 114 517 q 96 604 96 575 q 117 705 96 661 q 176 779 139 749 q 262 824 213 808 q 368 839 312 839 m 369 74 q 437 85 406 74 q 491 117 469 96 q 526 165 513 137 q 538 227 538 193 q 528 285 538 258 q 496 332 517 312 q 444 363 475 352 q 369 375 412 375 q 294 363 326 375 q 241 332 262 352 q 210 285 220 312 q 199 227 199 258 q 212 165 199 193 q 247 117 224 137 q 300 85 269 96 q 369 74 332 74 m 369 464 q 435 474 406 464 q 484 504 464 485 q 514 548 504 523 q 525 604 525 574 q 514 660 525 634 q 484 704 504 686 q 435 734 464 723 q 369 745 406 745 q 303 734 332 745 q 254 704 274 723 q 224 660 235 686 q 214 604 214 634 q 224 548 214 574 q 254 504 235 523 q 303 474 274 485 q 369 464 332 464 z "},"9":{"ha":768,"x_min":68,"x_max":689,"o":"m 342 74 q 421 86 387 74 q 479 120 455 99 q 520 171 504 142 q 546 233 536 200 q 561 302 556 267 q 567 372 565 338 q 531 335 553 353 q 481 301 509 316 q 419 276 453 286 q 346 267 385 267 q 243 280 293 267 q 155 327 193 294 q 92 418 116 361 q 68 562 68 475 q 74 618 68 588 q 92 680 79 649 q 127 739 105 711 q 183 790 150 768 q 262 826 216 812 q 370 839 309 839 q 510 811 450 839 q 610 728 570 783 q 669 595 650 674 q 689 414 689 516 q 673 258 689 325 q 629 142 656 191 q 566 63 602 94 q 491 13 530 31 q 410 -14 451 -6 q 332 -21 370 -21 q 240 -11 281 -21 q 169 11 199 -1 q 107 43 134 24 l 159 123 q 175 116 159 124 q 216 99 191 109 q 274 82 241 90 q 342 74 307 74 m 346 361 q 489 394 433 361 q 567 478 544 427 q 543 618 562 566 q 494 699 523 671 q 431 736 466 727 q 360 745 396 745 q 281 729 315 745 q 226 686 248 713 q 193 623 204 659 q 182 546 182 587 q 192 474 182 508 q 222 416 202 441 q 273 376 243 391 q 346 361 304 361 z "}," ":{"ha":349,"x_min":0,"x_max":0,"o":""},"!":{"ha":343,"x_min":85,"x_max":257,"o":"m 211 258 l 130 258 l 118 818 l 228 818 l 211 258 m 257 65 q 250 32 257 47 q 231 4 243 16 q 203 -14 219 -7 q 171 -21 188 -21 q 137 -14 153 -21 q 110 4 121 -7 q 92 32 98 16 q 85 65 85 47 q 92 98 85 82 q 110 125 98 114 q 137 144 121 137 q 171 151 153 151 q 203 144 188 151 q 231 125 219 137 q 250 98 243 114 q 257 65 257 82 z "},"\"":{"ha":478,"x_min":85,"x_max":393,"o":"m 85 818 l 196 818 l 170 559 l 111 559 l 85 818 m 282 818 l 393 818 l 367 559 l 309 559 l 282 818 z "},"#":{"ha":913,"x_min":52,"x_max":861,"o":"m 100 546 l 326 546 l 402 818 l 490 818 l 415 546 l 601 546 l 677 818 l 765 818 l 690 546 l 861 546 l 861 471 l 669 471 l 606 245 l 813 245 l 813 171 l 586 171 l 513 -93 l 425 -93 l 496 171 l 311 171 l 239 -93 l 149 -93 l 222 171 l 52 171 l 52 245 l 243 245 l 305 471 l 100 471 l 100 546 m 332 245 l 517 245 l 580 471 l 394 471 l 332 245 z "},"$":{"ha":663,"x_min":61,"x_max":597,"o":"m 374 905 l 374 782 q 453 771 419 779 q 509 755 487 764 q 544 741 532 747 q 558 734 555 735 l 559 734 l 581 579 l 497 571 l 480 673 q 436 688 463 681 q 374 699 409 695 l 374 447 l 406 443 q 495 416 458 435 q 554 370 531 397 q 587 309 576 343 q 597 236 597 275 q 582 133 597 176 q 537 61 566 90 q 467 18 509 33 q 372 0 425 3 l 372 -115 l 283 -115 l 283 1 q 205 14 241 5 q 142 32 169 23 q 101 48 116 41 q 85 56 85 56 l 61 200 l 147 210 l 162 113 q 220 95 189 103 q 283 82 252 86 l 283 357 q 192 384 230 363 q 129 433 153 404 q 92 497 104 462 q 81 570 81 532 q 91 646 81 610 q 124 710 100 682 q 186 756 148 738 q 283 781 225 774 l 283 905 l 374 905 m 500 222 q 494 263 500 243 q 474 301 488 284 q 435 330 460 319 q 372 345 410 342 l 372 82 q 465 125 431 92 q 500 222 500 159 m 168 585 q 175 541 168 562 q 196 504 182 520 q 230 477 210 488 q 273 463 249 466 l 283 461 l 283 699 q 195 661 222 690 q 168 585 168 631 z "},"%":{"ha":1015,"x_min":52,"x_max":962,"o":"m 347 -29 l 244 -29 l 650 839 l 751 839 l 347 -29 m 142 595 q 149 518 142 548 q 170 472 157 489 q 199 449 182 456 q 236 443 216 443 q 272 449 255 443 q 302 472 290 456 q 323 518 315 489 q 330 595 330 548 q 323 671 330 642 q 302 718 315 701 q 272 741 290 734 q 236 747 255 747 q 199 741 216 747 q 170 718 182 734 q 149 671 157 701 q 142 595 142 642 m 421 595 q 408 480 421 527 q 370 405 394 434 q 311 364 345 376 q 236 351 277 351 q 161 364 195 351 q 103 405 127 376 q 65 480 79 434 q 52 595 52 527 q 65 709 52 663 q 103 785 79 756 q 161 826 127 814 q 236 839 195 839 q 311 826 277 839 q 370 785 345 814 q 408 709 394 756 q 421 595 421 663 m 684 221 q 691 145 684 174 q 711 99 699 115 q 741 76 724 82 q 778 69 758 69 q 814 76 797 69 q 844 99 831 82 q 865 145 857 115 q 872 221 872 174 q 865 298 872 268 q 844 344 857 328 q 814 367 831 361 q 778 374 797 374 q 741 367 758 374 q 711 344 724 361 q 691 298 699 328 q 684 221 684 268 m 962 221 q 949 107 962 153 q 911 32 936 60 q 853 -10 887 3 q 778 -22 819 -22 q 703 -10 737 -22 q 645 32 669 3 q 607 107 621 60 q 593 221 593 153 q 607 336 593 289 q 645 411 621 382 q 703 453 669 440 q 778 465 737 465 q 853 453 819 465 q 911 411 887 440 q 949 336 936 382 q 962 221 962 289 z "},"&":{"ha":955,"x_min":64,"x_max":903,"o":"m 886 490 l 787 457 q 751 336 772 402 q 697 204 730 269 q 818 114 765 152 q 903 57 871 77 l 857 -21 q 841 -10 857 -20 q 798 20 825 1 q 733 66 770 39 q 651 127 695 94 q 597 68 627 96 q 530 21 567 41 q 447 -10 492 1 q 347 -21 402 -21 q 293 -17 323 -21 q 232 -2 263 -12 q 170 27 200 9 q 116 72 140 45 q 78 138 92 100 q 64 227 64 176 q 81 318 64 278 q 128 388 99 357 q 194 444 157 419 q 268 490 230 469 q 210 585 231 539 q 189 672 189 630 q 197 733 189 707 q 218 777 205 759 q 250 808 232 795 q 288 827 268 820 q 328 836 307 833 q 366 839 348 839 q 435 830 403 839 q 492 802 467 821 q 530 754 516 783 q 544 688 544 726 q 531 623 544 652 q 498 568 519 593 q 450 522 477 543 q 393 479 422 500 q 502 367 441 422 q 629 258 564 311 q 676 390 659 321 q 708 524 694 458 l 859 572 l 886 490 m 316 428 q 261 387 287 408 q 215 341 235 366 q 183 289 195 317 q 172 227 172 260 q 182 165 172 191 q 210 121 193 140 q 248 91 227 103 q 289 73 269 79 q 325 63 309 66 q 351 61 342 61 q 487 94 430 61 q 583 182 543 127 q 443 300 513 237 q 316 428 374 363 m 447 676 q 429 742 447 721 q 368 762 412 762 q 308 738 325 762 q 290 673 290 714 q 305 609 290 643 q 347 538 319 575 q 387 567 368 552 q 418 598 405 581 q 439 633 431 614 q 447 676 447 652 z "},"'":{"ha":282,"x_min":85,"x_max":197,"o":"m 85 818 l 197 818 l 170 559 l 112 559 l 85 818 z "},"(":{"ha":395,"x_min":62,"x_max":355,"o":"m 174 366 q 180 271 174 328 q 205 150 186 214 q 260 19 224 86 q 355 -106 296 -47 l 302 -174 q 214 -91 257 -144 q 137 34 171 -37 q 83 190 104 105 q 62 366 62 274 q 83 542 62 457 q 137 698 104 627 q 214 823 171 769 q 302 905 257 876 l 355 838 q 287 756 316 799 q 238 669 258 713 q 205 582 218 625 q 185 499 193 538 q 176 425 178 459 q 174 366 174 391 z "},")":{"ha":395,"x_min":39,"x_max":332,"o":"m 221 366 q 219 425 221 391 q 209 499 216 459 q 190 582 202 538 q 157 669 177 625 q 107 756 136 713 q 39 838 79 799 l 92 905 q 181 823 138 876 q 257 698 224 769 q 312 542 291 627 q 332 366 332 457 q 312 190 332 274 q 257 34 291 105 q 181 -91 224 -37 q 92 -174 138 -144 l 39 -106 q 134 19 98 -47 q 190 150 170 86 q 215 271 209 214 q 221 366 221 328 z "},"*":{"ha":654,"x_min":65,"x_max":594,"o":"m 366 703 l 559 778 l 594 677 l 393 624 l 520 467 l 435 403 l 326 572 l 216 403 l 129 464 l 260 625 l 65 676 l 97 778 l 283 704 l 272 905 l 377 905 l 366 703 z "},"+":{"ha":646,"x_min":64,"x_max":581,"o":"m 64 469 l 270 469 l 270 679 l 374 679 l 374 469 l 581 469 l 581 374 l 374 374 l 374 163 l 270 163 l 270 374 l 64 374 l 64 469 z "},",":{"ha":357,"x_min":87,"x_max":272,"o":"m 272 57 q 267 16 272 37 q 253 -23 262 -4 q 234 -61 245 -43 q 204 -106 223 -79 q 150 -168 184 -133 l 101 -126 q 125 -90 113 -109 q 145 -54 134 -73 q 165 -16 157 -35 q 140 -10 153 -14 q 115 4 127 -5 q 95 30 103 14 q 87 65 87 46 q 94 100 87 84 q 113 127 101 116 q 142 145 125 139 q 178 151 158 151 q 213 144 196 151 q 243 123 231 136 q 264 93 256 111 q 272 57 272 76 z "},"-":{"ha":612,"x_min":94,"x_max":519,"o":"m 94 370 l 519 370 l 519 273 l 94 273 l 94 370 z "},".":{"ha":344,"x_min":86,"x_max":258,"o":"m 258 65 q 251 32 258 47 q 232 4 244 16 q 205 -14 220 -7 q 172 -21 189 -21 q 139 -14 155 -21 q 111 4 123 -7 q 93 32 100 16 q 86 65 86 47 q 93 98 86 82 q 111 125 100 114 q 139 144 123 137 q 172 151 155 151 q 205 144 189 151 q 232 125 220 137 q 251 98 244 114 q 258 65 258 82 z "},"/":{"ha":626,"x_min":35,"x_max":591,"o":"m 137 -182 l 35 -182 l 490 818 l 591 818 l 137 -182 z "},":":{"ha":360,"x_min":94,"x_max":267,"o":"m 267 65 q 259 32 267 47 q 240 4 252 16 q 213 -14 229 -7 q 180 -21 197 -21 q 147 -14 163 -21 q 119 4 131 -7 q 101 32 108 16 q 94 65 94 47 q 101 98 94 82 q 119 125 108 114 q 147 144 131 137 q 180 151 163 151 q 213 144 197 151 q 240 125 229 137 q 259 98 252 114 q 267 65 267 82 m 267 530 q 259 497 267 513 q 240 470 252 481 q 213 451 229 458 q 180 444 197 444 q 147 451 163 444 q 119 470 131 458 q 101 497 108 481 q 94 530 94 513 q 101 563 94 547 q 119 591 108 579 q 147 609 131 602 q 180 616 163 616 q 213 609 197 616 q 240 591 229 602 q 259 563 252 579 q 267 530 267 547 z "},";":{"ha":376,"x_min":98,"x_max":282,"o":"m 270 530 q 263 497 270 513 q 244 470 256 481 q 216 451 232 458 q 184 444 201 444 q 150 451 166 444 q 123 470 134 458 q 104 497 111 481 q 98 530 98 513 q 104 563 98 547 q 123 591 111 579 q 150 609 134 602 q 184 616 166 616 q 216 609 201 616 q 244 591 232 602 q 263 563 256 579 q 270 530 270 547 m 282 57 q 277 16 282 37 q 263 -23 272 -4 q 244 -61 255 -43 q 222 -96 233 -79 q 160 -168 195 -133 l 111 -126 q 135 -90 123 -109 q 156 -54 144 -73 q 175 -16 167 -35 q 150 -10 163 -14 q 127 3 137 -5 q 105 30 113 14 q 98 65 98 46 q 104 100 98 84 q 123 127 111 116 q 152 145 136 139 q 188 151 168 151 q 223 144 206 151 q 254 123 241 136 q 274 93 267 111 q 282 57 282 76 z "},"<":{"ha":723,"x_min":45,"x_max":645,"o":"m 601 98 l 45 395 l 45 480 l 587 748 l 631 659 l 181 437 l 181 429 l 645 186 l 601 98 z "},"=":{"ha":715,"x_min":100,"x_max":615,"o":"m 100 578 l 615 578 l 615 482 l 100 482 l 100 578 m 100 358 l 615 358 l 615 262 l 100 262 l 100 358 z "},">":{"ha":719,"x_min":77,"x_max":673,"o":"m 91 186 l 537 428 l 537 436 l 77 659 l 121 747 l 673 479 l 673 395 l 136 97 l 91 186 z "},"?":{"ha":597,"x_min":46,"x_max":553,"o":"m 46 614 l 69 785 q 123 811 90 799 q 193 829 151 821 q 297 838 236 838 q 416 818 367 838 q 495 769 465 798 q 539 707 526 741 q 553 647 553 674 q 543 585 553 613 q 513 533 533 557 q 464 487 493 509 q 395 444 434 465 q 354 424 374 433 q 320 405 335 414 q 295 384 304 395 q 286 358 286 373 q 293 334 286 345 q 308 314 299 323 q 328 300 317 306 q 347 289 339 294 l 293 215 q 284 220 292 216 q 263 232 275 224 q 236 252 250 240 q 209 281 221 264 q 189 319 197 298 q 180 368 180 341 q 196 426 180 401 q 232 469 211 451 q 275 498 253 486 q 311 518 297 510 q 396 568 378 554 q 424 602 413 583 q 435 648 435 621 q 427 680 435 663 q 402 711 419 696 q 359 735 385 725 q 296 745 333 745 q 211 738 245 745 q 155 721 177 730 l 138 604 l 46 614 m 374 65 q 367 32 374 47 q 348 4 359 16 q 320 -14 336 -7 q 288 -21 304 -21 q 254 -14 270 -21 q 227 4 238 -7 q 208 32 215 16 q 201 65 201 47 q 208 98 201 82 q 227 125 215 114 q 254 144 238 137 q 288 151 270 151 q 320 144 304 151 q 348 125 336 137 q 367 98 359 114 q 374 65 374 82 z "},"@":{"ha":995,"x_min":71,"x_max":941,"o":"m 685 157 q 708 135 692 144 q 745 125 724 125 q 779 134 762 125 q 809 164 795 142 q 832 221 823 185 q 841 313 841 258 q 833 393 841 352 q 810 471 826 433 q 769 543 794 509 q 707 602 743 576 q 622 641 670 627 q 513 656 574 656 q 381 631 442 656 q 275 560 320 606 q 204 447 230 513 q 178 296 178 380 q 205 123 178 192 q 278 14 233 55 q 382 -44 323 -27 q 505 -61 441 -61 q 568 -54 537 -61 q 624 -39 600 -47 q 678 -17 652 -30 l 724 -83 q 665 -115 699 -102 q 595 -137 637 -127 q 502 -147 554 -147 q 312 -113 393 -147 q 177 -19 231 -79 q 97 121 123 40 q 71 296 71 202 q 82 395 71 344 q 116 496 93 447 q 174 591 138 546 q 258 669 209 635 q 371 722 307 703 q 513 742 434 742 q 700 706 619 742 q 833 610 780 669 q 914 473 887 550 q 941 314 941 395 q 923 199 941 250 q 878 114 906 149 q 815 61 850 79 q 742 43 779 43 q 679 58 709 43 q 623 106 648 73 q 593 78 610 90 q 555 59 578 67 q 502 50 532 50 q 430 63 465 50 q 366 103 394 75 q 321 174 338 130 q 304 279 304 217 q 322 385 304 341 q 370 455 340 428 q 441 495 401 482 q 528 507 482 507 q 588 499 559 507 q 640 481 616 492 q 685 457 663 471 l 685 157 m 510 132 q 552 139 535 132 q 579 153 569 145 q 596 172 590 161 l 596 408 q 576 416 587 413 q 553 422 566 420 q 526 425 540 425 q 438 390 467 425 q 410 278 410 355 q 418 212 410 240 q 440 167 427 184 q 472 141 454 149 q 510 132 490 132 z "},"A":{"ha":899,"x_min":9,"x_max":884,"o":"m 884 0 l 547 0 l 547 96 l 634 96 l 591 222 l 291 222 l 243 96 l 332 96 l 332 0 l 9 0 l 9 96 l 141 96 l 372 722 l 231 722 l 231 818 l 502 818 l 752 96 l 884 96 l 884 0 m 326 318 l 557 318 l 447 677 l 326 318 z "},"B":{"ha":835,"x_min":66,"x_max":753,"o":"m 310 722 l 310 456 l 484 456 q 519 461 498 456 q 561 483 541 467 q 594 528 581 499 q 608 603 608 557 q 594 672 608 648 q 556 708 580 696 q 501 721 532 719 q 436 722 470 722 l 310 722 m 310 372 l 309 97 l 473 97 q 592 132 550 97 q 635 241 635 168 q 596 340 635 307 q 482 372 557 372 l 310 372 m 420 818 q 557 806 499 818 q 652 769 614 795 q 708 703 690 744 q 726 604 726 663 q 718 547 726 575 q 694 495 709 519 q 663 453 680 471 q 628 422 645 434 q 679 393 656 412 q 718 350 702 374 q 744 298 734 326 q 753 241 753 270 q 739 146 753 191 q 695 70 725 102 q 618 19 665 37 q 507 0 572 0 l 66 0 l 66 96 l 199 96 l 199 722 l 66 722 l 66 818 l 420 818 z "},"C":{"ha":825,"x_min":74,"x_max":755,"o":"m 752 192 l 718 31 q 650 5 688 16 q 571 -13 617 -5 q 469 -21 526 -21 q 307 9 380 -21 q 183 95 234 39 q 103 231 132 151 q 75 410 75 311 q 102 587 74 507 q 181 723 130 667 q 306 809 233 779 q 468 839 378 840 q 585 828 536 838 q 664 806 633 819 q 709 784 695 794 q 724 774 724 774 l 755 612 l 659 591 l 631 711 q 571 734 610 723 q 469 745 531 745 q 351 721 402 745 q 264 654 299 698 q 211 549 229 611 q 193 410 193 487 q 211 268 193 330 q 266 163 230 206 q 352 97 301 119 q 469 74 404 74 q 563 84 521 74 q 631 103 606 94 l 658 214 l 752 192 z "},"D":{"ha":934,"x_min":66,"x_max":857,"o":"m 436 818 q 607 797 530 818 q 740 728 685 777 q 826 598 795 679 q 857 396 857 517 q 825 231 857 304 q 738 106 793 157 q 608 27 683 55 q 447 0 533 0 l 66 0 l 66 96 l 199 96 l 199 722 l 66 722 l 66 818 l 436 818 m 310 96 l 422 96 q 659 172 579 96 q 739 396 739 248 q 719 560 739 496 q 660 660 699 623 q 566 709 622 696 q 436 722 509 722 l 310 722 l 310 96 z "},"E":{"ha":841,"x_min":66,"x_max":783,"o":"m 783 214 l 711 0 l 66 0 l 66 96 l 198 96 l 199 722 l 67 722 l 67 818 l 683 818 l 755 604 l 663 574 l 608 722 l 311 722 l 311 471 l 570 471 l 570 375 l 311 375 l 309 96 l 635 96 l 691 244 l 783 214 z "},"F":{"ha":775,"x_min":66,"x_max":753,"o":"m 662 574 l 606 722 l 309 722 l 309 463 l 538 463 l 538 367 l 308 367 l 308 96 l 477 96 l 477 0 l 66 0 l 66 96 l 198 96 l 199 722 l 67 722 l 67 818 l 682 818 l 753 604 l 662 574 z "},"G":{"ha":847,"x_min":75,"x_max":760,"o":"m 471 403 l 752 403 l 752 87 q 733 70 752 87 q 676 33 715 53 q 581 -4 638 12 q 446 -21 523 -21 q 308 5 375 -21 q 190 85 241 31 q 106 219 138 138 q 75 410 75 300 q 103 588 75 509 q 180 723 131 667 q 297 809 229 779 q 444 839 365 839 q 566 829 513 839 q 655 806 618 819 q 728 774 697 792 l 760 612 l 663 591 l 635 710 q 607 721 624 715 q 567 732 590 727 q 513 741 543 738 q 446 745 483 745 q 338 723 385 745 q 259 658 292 701 q 210 553 227 615 q 193 410 193 490 q 212 255 193 319 q 266 151 232 191 q 347 92 300 111 q 446 74 393 74 q 527 82 490 74 q 591 100 564 90 q 633 119 618 111 q 648 129 648 127 l 648 307 l 471 307 l 471 403 z "},"H":{"ha":1019,"x_min":66,"x_max":954,"o":"m 621 96 l 709 96 l 709 371 l 309 371 l 308 96 l 397 96 l 397 0 l 66 0 l 66 96 l 198 96 l 199 722 l 67 722 l 67 818 l 399 818 l 399 722 l 311 722 l 309 467 l 709 467 l 711 722 l 622 722 l 622 818 l 954 818 l 954 722 l 822 722 l 819 96 l 951 96 l 951 0 l 621 0 l 621 96 z "},"I":{"ha":509,"x_min":66,"x_max":442,"o":"m 67 818 l 442 818 l 442 722 l 312 722 l 309 96 l 442 96 l 442 0 l 66 0 l 66 96 l 199 96 l 199 722 l 67 722 l 67 818 z "},"J":{"ha":668,"x_min":27,"x_max":627,"o":"m 230 818 l 627 818 l 627 722 l 497 722 l 494 342 q 491 221 493 274 q 477 127 489 168 q 443 62 467 90 q 389 16 420 34 q 320 -12 357 -3 q 243 -21 282 -21 q 168 -13 201 -21 q 112 6 135 -4 q 76 25 88 16 q 62 35 63 34 l 27 196 l 122 218 l 151 94 q 157 92 151 95 q 176 85 164 89 q 204 78 188 81 q 237 74 220 75 q 276 77 256 73 q 315 91 297 81 q 348 116 334 100 q 370 153 363 131 q 383 232 382 185 q 385 345 385 279 l 386 722 l 230 722 l 230 818 z "},"K":{"ha":928,"x_min":66,"x_max":899,"o":"m 525 96 l 625 96 l 446 366 l 307 366 l 309 96 l 396 96 l 396 0 l 66 0 l 66 96 l 197 96 l 197 722 l 66 722 l 66 818 l 396 818 l 396 722 l 307 722 l 307 461 l 429 461 l 621 722 l 525 722 l 525 818 l 867 818 l 867 722 l 741 722 l 530 437 l 760 96 l 899 96 l 899 0 l 525 0 l 525 96 z "},"L":{"ha":765,"x_min":64,"x_max":741,"o":"m 741 212 l 669 0 l 66 0 l 66 96 l 223 96 l 223 722 l 64 722 l 64 818 l 492 818 l 492 722 l 333 722 l 333 96 l 595 96 l 650 243 l 741 212 z "},"M":{"ha":1203,"x_min":64,"x_max":1137,"o":"m 543 98 l 365 545 l 301 722 l 298 96 l 389 96 l 389 0 l 64 0 l 64 96 l 197 96 l 198 722 l 69 722 l 69 818 l 377 818 l 610 222 l 841 818 l 1137 818 l 1137 722 l 1005 722 l 1005 96 l 1137 96 l 1137 0 l 805 0 l 805 96 l 894 96 l 894 722 l 832 542 l 663 98 l 543 98 z "},"N":{"ha":1022,"x_min":66,"x_max":973,"o":"m 612 818 l 973 818 l 973 722 l 840 722 l 840 0 l 703 0 l 308 722 l 311 96 l 427 96 l 427 0 l 66 0 l 66 96 l 198 96 l 197 722 l 67 722 l 67 818 l 373 818 l 728 170 l 728 722 l 612 722 l 612 818 z "},"O":{"ha":910,"x_min":75,"x_max":836,"o":"m 455 745 q 339 722 389 745 q 258 656 290 699 q 209 551 225 613 q 193 410 193 489 q 209 268 193 330 q 258 163 225 206 q 339 97 290 119 q 455 74 389 74 q 570 97 521 74 q 652 163 620 119 q 701 268 685 206 q 718 410 718 330 q 701 551 718 489 q 652 656 685 613 q 570 722 620 699 q 455 745 521 745 m 455 -21 q 300 9 370 -21 q 180 95 231 39 q 102 231 130 151 q 75 410 75 311 q 102 588 75 509 q 180 723 130 667 q 299 809 230 779 q 454 839 369 839 q 609 809 539 839 q 730 723 680 779 q 808 588 781 667 q 836 410 836 509 q 808 231 836 311 q 731 95 781 151 q 611 9 681 39 q 455 -21 541 -21 z "},"P":{"ha":790,"x_min":66,"x_max":741,"o":"m 433 400 q 514 406 479 400 q 574 430 550 412 q 610 478 597 447 q 623 562 623 510 q 610 644 623 612 q 574 693 597 675 q 514 716 550 710 q 433 722 479 722 l 309 722 l 309 400 l 433 400 m 307 302 l 307 96 l 473 96 l 473 0 l 66 0 l 66 96 l 196 96 l 196 722 l 66 722 l 66 818 l 435 818 q 578 802 519 818 q 672 753 636 785 q 725 673 709 721 q 741 562 741 625 q 725 451 741 499 q 672 369 709 402 q 578 319 636 336 q 435 302 519 302 l 307 302 z "},"Q":{"ha":911,"x_min":75,"x_max":911,"o":"m 455 -21 q 300 9 370 -21 q 180 95 231 39 q 102 231 130 151 q 75 410 75 311 q 102 588 75 509 q 180 723 130 667 q 299 809 230 779 q 454 839 369 839 q 609 809 539 839 q 730 723 680 779 q 808 588 781 667 q 836 410 836 509 q 807 229 836 309 q 726 92 779 149 l 911 -18 l 837 -110 l 663 37 q 567 -6 619 9 q 455 -21 515 -21 m 455 745 q 339 722 389 745 q 258 656 290 699 q 209 551 225 613 q 193 410 193 489 q 209 268 193 330 q 258 163 225 206 q 339 97 290 119 q 455 74 389 74 q 570 97 521 74 q 652 163 620 119 q 701 268 685 206 q 718 410 718 330 q 701 551 718 489 q 652 656 685 613 q 570 722 620 699 q 455 745 521 745 z "},"R":{"ha":867,"x_min":66,"x_max":831,"o":"m 831 0 l 623 0 l 448 321 l 307 321 l 307 96 l 396 96 l 396 0 l 66 0 l 66 96 l 196 96 l 196 722 l 66 722 l 66 818 l 435 818 q 577 803 519 818 q 670 758 635 789 q 720 679 705 727 q 734 562 734 630 q 723 480 734 517 q 689 415 711 444 q 635 366 667 386 q 566 335 604 346 l 704 96 l 831 96 l 831 0 m 309 418 l 438 418 q 497 422 466 418 q 555 443 529 427 q 600 486 582 458 q 617 561 617 514 q 605 648 617 616 q 570 696 593 680 q 513 718 547 713 q 434 722 479 722 l 309 722 l 309 418 z "},"S":{"ha":767,"x_min":71,"x_max":693,"o":"m 582 224 q 577 267 582 246 q 557 305 572 288 q 515 335 543 322 q 441 354 487 348 l 336 368 q 225 397 271 376 q 148 450 178 418 q 104 525 118 482 q 90 618 90 567 q 108 705 90 665 q 162 775 125 746 q 253 822 198 805 q 383 839 308 839 q 479 833 434 839 q 558 820 524 828 q 616 805 593 812 q 647 793 639 797 l 671 615 l 575 606 l 557 722 q 486 739 528 732 q 385 746 444 746 q 310 738 343 746 q 252 714 276 730 q 215 674 228 698 q 201 621 201 651 q 238 530 201 562 q 336 489 275 498 l 463 469 q 576 439 532 459 q 647 389 621 418 q 683 322 673 359 q 693 239 693 284 q 671 120 693 169 q 608 39 648 71 q 513 -6 568 8 q 390 -21 457 -21 q 297 -16 340 -21 q 218 -3 254 -11 q 151 14 181 5 q 97 33 121 24 l 71 202 l 166 217 l 185 107 q 227 94 206 100 q 269 84 247 88 q 316 77 291 79 q 372 74 342 74 q 454 82 416 74 q 520 107 492 90 q 565 153 549 125 q 582 224 582 182 z "},"T":{"ha":811,"x_min":48,"x_max":764,"o":"m 659 590 l 659 722 l 463 722 l 460 96 l 591 96 l 591 0 l 216 0 l 216 96 l 349 96 l 350 722 l 154 722 l 154 590 l 48 590 l 48 818 l 764 818 l 764 590 l 659 590 z "},"U":{"ha":935,"x_min":35,"x_max":901,"o":"m 461 74 q 554 92 517 74 q 615 142 592 109 q 647 223 637 176 q 657 330 657 271 l 657 722 l 568 722 l 568 818 l 901 818 l 901 722 l 768 722 l 768 326 q 756 200 768 254 q 722 108 743 146 q 670 44 700 69 q 607 5 641 19 q 535 -15 572 -9 q 461 -21 498 -21 q 390 -15 425 -21 q 321 5 354 -9 q 261 44 289 19 q 213 108 233 69 q 180 200 192 146 q 168 326 168 254 l 168 722 l 35 722 l 35 818 l 368 818 l 368 722 l 279 722 l 279 317 q 289 211 279 256 q 319 135 298 165 q 375 89 340 104 q 461 74 410 74 z "},"V":{"ha":922,"x_min":5,"x_max":907,"o":"m 5 818 l 347 818 l 347 722 l 258 722 l 400 342 l 474 123 l 539 330 l 673 722 l 584 722 l 584 818 l 907 818 l 907 722 l 775 722 l 530 0 l 410 0 l 138 722 l 5 722 l 5 818 z "},"W":{"ha":1288,"x_min":8,"x_max":1272,"o":"m 8 818 l 346 818 l 346 722 l 257 722 l 374 329 l 434 126 l 477 322 l 590 714 l 713 714 l 810 330 l 854 127 l 914 330 l 1043 722 l 954 722 l 954 818 l 1272 818 l 1272 722 l 1141 722 l 913 0 l 785 0 l 686 374 l 642 561 l 588 367 l 490 0 l 371 0 l 140 722 l 8 722 l 8 818 z "},"X":{"ha":954,"x_min":44,"x_max":921,"o":"m 44 818 l 394 818 l 394 722 l 305 722 l 480 501 l 644 722 l 549 722 l 549 818 l 896 818 l 896 722 l 764 722 l 543 424 l 803 96 l 921 96 l 921 0 l 558 0 l 558 96 l 661 96 l 465 340 l 283 96 l 386 96 l 386 0 l 45 0 l 45 96 l 164 96 l 404 418 l 162 722 l 44 722 l 44 818 z "},"Y":{"ha":920,"x_min":15,"x_max":908,"o":"m 15 818 l 347 818 l 347 722 l 273 722 l 469 478 l 656 722 l 579 722 l 579 818 l 908 818 l 908 722 l 775 722 l 518 385 l 515 96 l 646 96 l 646 0 l 275 0 l 275 96 l 406 96 l 407 380 l 132 722 l 15 722 l 15 818 z "},"Z":{"ha":780,"x_min":82,"x_max":720,"o":"m 84 600 l 123 818 l 691 818 l 691 746 l 223 96 l 572 96 l 628 244 l 720 214 l 647 0 l 82 0 l 82 78 l 546 722 l 201 722 l 173 587 l 84 600 z "},"[":{"ha":404,"x_min":109,"x_max":358,"o":"m 215 -85 l 358 -85 l 358 -172 l 109 -172 l 109 905 l 358 905 l 358 818 l 215 818 l 215 -85 z "},"\\":{"ha":625,"x_min":35,"x_max":591,"o":"m 35 818 l 136 818 l 591 -182 l 488 -182 l 35 818 z "},"]":{"ha":404,"x_min":45,"x_max":296,"o":"m 189 818 l 45 818 l 45 905 l 296 905 l 296 -172 l 45 -172 l 45 -85 l 189 -85 l 189 818 z "},"^":{"ha":1157,"x_min":0,"x_max":0,"o":""},"_":{"ha":822,"x_min":92,"x_max":730,"o":"m 92 -26 l 730 -26 l 730 -122 l 92 -122 l 92 -26 z "},"`":{"ha":465,"x_min":58,"x_max":407,"o":"m 407 711 l 382 667 l 58 814 l 107 905 l 407 711 z "},"a":{"ha":710,"x_min":54,"x_max":705,"o":"m 96 452 l 119 578 q 176 597 144 589 q 240 610 203 604 q 320 616 277 616 q 426 605 382 616 q 496 573 469 593 q 540 526 524 553 q 563 470 555 500 q 571 410 570 441 q 572 350 572 378 l 572 109 l 705 65 l 677 -24 l 489 40 q 405 -2 454 16 q 294 -21 355 -21 q 193 -7 237 -21 q 118 32 149 7 q 71 91 87 57 q 54 164 55 124 q 72 247 54 212 q 121 303 90 281 q 195 336 153 326 q 285 346 237 346 l 465 345 l 465 355 q 465 392 465 373 q 462 431 465 412 q 452 468 459 450 q 429 498 444 485 q 388 520 413 512 q 324 528 362 528 q 248 522 280 528 q 199 511 216 517 l 185 435 l 96 452 m 299 68 q 355 73 330 68 q 402 86 381 78 q 438 103 422 94 q 465 121 454 113 l 465 257 l 288 258 q 242 255 264 258 q 203 243 220 252 q 176 215 186 233 q 165 165 165 196 q 176 122 165 140 q 205 92 187 104 q 248 74 224 79 q 299 68 273 68 z "},"b":{"ha":730,"x_min":-31,"x_max":666,"o":"m -2 901 l 209 829 l 209 571 q 282 603 241 589 q 369 616 322 616 q 488 597 433 616 q 582 539 543 577 q 644 445 622 501 q 666 314 666 388 q 644 178 666 239 q 582 72 622 116 q 486 3 542 28 q 363 -21 431 -21 q 255 -9 303 -21 q 172 18 207 3 q 101 57 132 35 l 101 770 l -31 815 l -2 901 m 362 68 q 446 86 410 68 q 506 136 482 104 q 543 214 530 169 q 555 314 555 259 q 509 473 555 419 q 368 528 463 528 q 301 519 330 528 q 252 502 272 511 q 209 476 228 490 l 209 103 q 248 85 226 93 q 296 73 268 79 q 362 68 325 68 z "},"c":{"ha":652,"x_min":64,"x_max":602,"o":"m 497 414 l 479 510 q 444 521 471 514 q 368 528 417 528 q 223 468 272 528 q 175 298 175 408 q 223 129 175 189 q 368 68 272 68 q 441 77 407 68 q 500 98 475 86 q 555 127 530 111 l 602 60 q 583 46 602 59 q 532 19 564 34 q 458 -8 500 4 q 367 -21 415 -21 q 244 1 300 -21 q 148 64 189 23 q 86 164 108 105 q 64 298 64 224 q 86 432 64 373 q 148 532 108 491 q 244 595 189 573 q 367 616 300 616 q 451 611 416 616 q 510 600 486 606 q 557 583 537 592 l 586 433 l 497 414 z "},"d":{"ha":781,"x_min":62,"x_max":758,"o":"m 758 65 l 730 -24 l 546 40 q 509 17 529 28 q 466 -2 489 6 q 418 -16 444 -11 q 366 -21 393 -21 q 243 3 298 -21 q 147 71 187 27 q 84 176 106 115 q 62 311 62 237 q 86 434 62 378 q 150 531 109 490 q 247 594 191 572 q 366 616 302 616 q 449 608 412 616 q 519 587 487 600 l 519 770 l 388 815 l 417 901 l 628 829 l 628 110 l 758 65 m 367 528 q 287 511 323 528 q 226 466 251 495 q 187 398 201 437 q 174 313 174 359 q 186 213 174 258 q 222 135 198 168 q 282 85 246 103 q 367 68 319 68 q 416 73 393 68 q 458 86 439 79 q 493 103 477 94 q 519 119 509 112 l 519 493 q 480 510 503 503 q 432 522 460 517 q 367 528 404 528 z "},"e":{"ha":697,"x_min":64,"x_max":634,"o":"m 367 -21 q 244 1 300 -21 q 148 64 189 23 q 86 164 108 105 q 64 298 64 224 q 86 432 64 373 q 148 532 108 491 q 244 595 189 573 q 367 616 300 616 q 474 601 422 616 q 562 547 525 585 q 616 441 598 508 q 624 273 634 375 l 176 271 q 230 121 182 174 q 368 68 278 68 q 456 78 417 68 q 522 102 494 89 q 579 136 555 117 l 629 71 q 612 56 629 70 q 561 24 595 41 q 479 -7 528 7 q 367 -21 430 -21 m 368 528 q 238 483 286 528 q 178 357 191 439 l 529 358 q 487 485 528 442 q 368 528 447 528 z "},"f":{"ha":509,"x_min":65,"x_max":616,"o":"m 65 86 l 182 86 l 182 510 l 65 510 l 65 596 l 182 596 l 182 657 q 196 759 182 715 q 239 832 210 803 q 317 877 269 862 q 431 892 364 892 q 511 884 476 892 q 569 867 545 876 q 616 842 596 855 l 575 771 q 538 787 559 779 q 495 798 521 793 q 437 803 470 803 q 364 792 393 803 q 319 761 336 782 q 296 708 302 740 q 290 635 290 677 l 290 596 l 463 596 l 463 510 l 290 510 l 290 86 l 415 86 l 415 0 l 65 0 l 65 86 z "},"g":{"ha":745,"x_min":58,"x_max":745,"o":"m 581 522 q 611 465 600 497 q 622 393 622 432 q 599 290 622 333 q 537 218 576 246 q 449 177 499 191 q 345 164 399 164 q 294 166 313 164 q 273 168 282 167 l 273 37 l 429 37 q 651 -123 651 37 q 627 -210 651 -174 q 561 -268 602 -245 q 467 -300 520 -290 q 355 -310 413 -310 q 240 -300 293 -310 q 147 -278 186 -290 q 84 -255 107 -266 q 58 -243 61 -245 l 97 -161 q 173 -192 132 -179 q 255 -213 208 -203 q 355 -222 302 -222 q 437 -217 401 -222 q 498 -201 473 -212 q 536 -174 523 -191 q 550 -134 550 -157 q 543 -99 550 -115 q 518 -72 536 -83 q 472 -55 501 -61 q 400 -49 444 -49 l 174 -49 l 174 203 q 136 230 154 213 q 103 270 117 247 q 80 322 89 293 q 72 386 72 351 q 92 482 72 439 q 147 555 111 525 q 233 601 182 585 q 346 616 283 616 q 439 607 398 616 q 515 578 481 597 l 712 652 l 745 559 l 581 522 m 178 390 q 192 325 178 353 q 229 278 205 297 q 283 251 252 260 q 347 241 314 241 q 411 251 380 241 q 466 278 442 260 q 503 325 489 297 q 517 390 517 353 q 471 502 517 465 q 347 539 425 539 q 223 502 269 539 q 178 390 178 465 z "},"h":{"ha":836,"x_min":20,"x_max":807,"o":"m 49 903 l 260 831 l 260 558 q 293 578 274 568 q 336 597 313 588 q 386 611 359 606 q 441 616 412 616 q 555 602 508 616 q 632 558 602 587 q 676 484 663 528 q 690 382 690 440 l 690 86 l 807 86 l 807 0 l 519 0 l 519 86 l 582 86 l 582 359 q 576 428 582 397 q 553 481 570 458 q 508 515 536 503 q 435 528 479 528 q 365 520 397 528 q 309 504 333 513 q 260 481 282 494 l 260 86 l 322 86 l 322 0 l 35 0 l 35 86 l 151 86 l 151 771 l 20 817 l 49 903 z "},"i":{"ha":439,"x_min":64,"x_max":404,"o":"m 64 596 l 288 596 l 288 86 l 404 86 l 404 0 l 64 0 l 64 86 l 180 86 l 180 510 l 64 510 l 64 596 m 310 806 q 303 772 310 788 q 284 745 296 756 q 257 726 273 733 q 224 720 241 720 q 191 726 206 720 q 163 745 175 733 q 145 772 152 756 q 138 806 138 788 q 145 838 138 823 q 163 866 152 854 q 191 885 175 878 q 224 892 206 892 q 257 885 241 892 q 284 866 273 878 q 303 838 296 854 q 310 806 310 823 z "},"j":{"ha":368,"x_min":-61,"x_max":283,"o":"m 35 596 l 260 596 l 260 -43 q 258 -103 260 -72 q 250 -163 257 -134 q 227 -219 243 -193 q 183 -266 212 -246 q 112 -298 155 -286 q 7 -310 69 -310 q -9 -309 0 -310 q -28 -308 -18 -309 q -46 -306 -37 -307 q -61 -304 -55 -305 l -47 -220 q -20 -222 -34 -221 q 11 -222 -6 -222 q 96 -205 67 -222 q 137 -163 125 -189 q 150 -107 149 -138 q 151 -52 151 -77 l 151 510 l 35 510 l 35 596 m 283 806 q 276 772 283 788 q 257 745 269 756 q 230 726 245 733 q 197 720 214 720 q 164 726 180 720 q 136 745 148 733 q 118 772 125 756 q 111 806 111 788 q 118 838 111 823 q 136 866 125 854 q 164 885 148 878 q 197 892 180 892 q 230 885 214 892 q 257 866 245 878 q 276 838 269 854 q 283 806 283 823 z "},"k":{"ha":764,"x_min":20,"x_max":724,"o":"m 701 510 l 585 510 l 468 311 l 469 311 l 604 86 l 724 86 l 724 0 l 539 0 l 382 260 l 260 260 l 260 86 l 322 86 l 322 0 l 35 0 l 35 86 l 151 86 l 151 772 l 20 818 l 49 904 l 260 832 l 260 346 l 386 346 l 482 510 l 410 510 l 410 596 l 701 596 l 701 510 z "},"l":{"ha":411,"x_min":13,"x_max":376,"o":"m 260 854 l 260 86 l 376 86 l 376 0 l 35 0 l 35 86 l 151 86 l 151 786 l 13 817 l 36 905 l 260 854 z "},"m":{"ha":1234,"x_min":52,"x_max":1204,"o":"m 81 616 l 264 553 q 290 570 273 559 q 330 591 306 581 q 384 609 353 602 q 452 616 415 616 q 574 598 526 616 q 649 543 622 580 l 652 545 q 705 581 675 564 q 767 605 731 594 q 849 616 804 616 q 961 602 916 616 q 1035 558 1007 587 q 1076 484 1063 528 q 1088 382 1088 440 l 1088 86 l 1204 86 l 1204 0 l 917 0 l 917 86 l 979 86 l 979 359 q 975 428 979 397 q 955 481 970 458 q 913 515 941 503 q 842 528 886 528 q 775 520 804 528 q 728 504 747 513 q 690 481 706 494 l 690 86 l 753 86 l 753 0 l 519 0 l 519 86 l 582 86 l 582 359 q 577 428 582 397 q 558 481 572 458 q 517 515 544 503 q 445 528 490 528 q 379 520 407 528 q 332 504 351 513 q 294 481 309 494 l 294 86 l 356 86 l 356 0 l 68 0 l 68 86 l 185 86 l 185 485 l 52 530 l 81 616 z "},"n":{"ha":870,"x_min":52,"x_max":840,"o":"m 81 616 l 265 553 q 296 570 275 559 q 343 591 316 581 q 405 609 371 602 q 475 616 438 616 q 589 602 542 616 q 666 558 636 587 q 710 484 696 528 q 724 382 724 440 l 724 86 l 840 86 l 840 0 l 553 0 l 553 86 l 615 86 l 615 359 q 609 428 615 397 q 586 481 603 458 q 541 515 570 503 q 468 528 513 528 q 398 520 430 528 q 343 504 367 513 q 293 481 316 494 l 293 86 l 355 86 l 355 0 l 68 0 l 68 86 l 185 86 l 185 485 l 52 530 l 81 616 z "},"o":{"ha":739,"x_min":64,"x_max":675,"o":"m 367 -21 q 244 1 300 -21 q 148 63 189 22 q 86 163 108 104 q 64 297 64 222 q 86 431 64 372 q 148 531 108 490 q 244 594 189 572 q 367 616 300 616 q 493 594 436 616 q 590 531 550 572 q 653 431 631 490 q 675 297 675 372 q 653 163 675 222 q 590 63 631 104 q 493 1 550 22 q 367 -21 436 -21 m 368 528 q 223 467 272 528 q 175 297 175 406 q 223 128 175 188 q 368 68 272 68 q 515 127 467 68 q 564 297 564 187 q 515 467 564 406 q 368 528 466 528 z "},"p":{"ha":779,"x_min":20,"x_max":716,"o":"m 376 -289 l 35 -289 l 35 -203 l 151 -203 l 151 489 l 20 532 l 48 621 l 235 557 q 272 578 251 568 q 316 598 292 589 q 366 611 340 606 q 419 616 391 616 q 539 597 485 616 q 633 540 594 578 q 694 446 673 502 q 716 317 716 390 q 694 180 716 242 q 632 73 672 118 q 536 4 592 28 q 414 -21 481 -21 q 329 -14 367 -21 q 260 3 291 -7 l 260 -203 l 376 -203 l 376 -289 m 412 68 q 496 86 460 68 q 557 138 532 104 q 593 216 581 171 q 606 317 606 262 q 418 528 606 528 q 351 519 380 528 q 302 502 322 511 q 260 476 278 490 l 260 103 q 299 85 277 93 q 347 73 319 79 q 412 68 375 68 z "},"q":{"ha":730,"x_min":62,"x_max":746,"o":"m 404 -203 l 521 -203 l 521 24 q 451 -7 490 6 q 366 -21 412 -21 q 243 3 298 -21 q 147 71 187 27 q 84 176 106 115 q 62 311 62 237 q 86 434 62 378 q 150 531 109 490 q 247 594 191 572 q 366 616 302 616 q 474 604 425 616 q 557 577 522 592 q 610 551 591 563 q 629 538 629 538 l 629 -203 l 746 -203 l 746 -289 l 404 -289 l 404 -203 m 367 528 q 287 511 323 528 q 226 466 251 495 q 187 398 201 437 q 174 313 174 359 q 186 213 174 258 q 222 135 198 168 q 282 85 246 103 q 367 68 319 68 q 416 73 393 68 q 459 86 439 79 q 495 103 479 94 q 521 121 511 113 l 521 492 q 510 498 520 492 q 480 510 500 503 q 432 522 460 517 q 367 528 404 528 z "},"r":{"ha":600,"x_min":52,"x_max":568,"o":"m 81 615 l 266 551 q 297 569 276 558 q 347 591 317 581 q 413 609 376 602 q 492 616 450 616 q 520 616 510 616 q 536 615 531 616 q 545 614 543 614 l 568 468 l 478 449 l 465 526 q 399 519 430 526 q 345 503 369 511 q 294 479 318 492 l 294 86 l 429 86 l 429 0 l 68 0 l 68 86 l 185 86 l 185 484 l 52 529 l 81 615 z "},"s":{"ha":656,"x_min":66,"x_max":593,"o":"m 490 427 l 475 503 q 416 519 454 510 q 330 528 378 528 q 209 510 248 528 q 170 449 170 493 q 196 388 170 407 q 278 362 221 368 l 399 349 q 485 332 448 344 q 545 299 521 321 q 581 246 569 278 q 593 170 593 214 q 574 87 593 123 q 520 27 555 52 q 439 -9 486 3 q 336 -21 392 -21 q 206 -8 267 -21 q 92 29 145 5 l 66 171 l 156 191 l 172 98 q 249 73 208 79 q 334 68 290 68 q 452 94 414 68 q 491 170 491 121 q 471 219 491 199 q 404 244 452 239 l 264 258 q 182 276 218 263 q 121 311 146 289 q 84 365 97 333 q 71 441 71 397 q 88 514 71 482 q 137 569 104 547 q 215 604 169 592 q 320 616 261 616 q 396 614 363 616 q 457 606 429 611 q 508 593 484 601 q 556 576 532 585 l 580 446 l 490 427 z "},"t":{"ha":473,"x_min":26,"x_max":442,"o":"m 421 510 l 248 510 l 248 268 q 249 206 248 240 q 259 141 250 172 q 290 89 268 111 q 353 65 311 68 q 400 68 380 65 q 421 72 420 72 l 442 -5 q 415 -14 430 -10 q 385 -19 402 -17 q 348 -21 368 -21 q 261 -7 300 -21 q 196 36 223 7 q 155 107 170 64 q 141 207 141 150 l 141 510 l 26 510 l 26 596 l 141 596 l 141 717 l 248 742 l 248 596 l 421 596 l 421 510 z "},"u":{"ha":840,"x_min":28,"x_max":814,"o":"m 458 596 l 684 596 l 684 109 l 814 64 l 787 -25 l 597 40 q 565 22 585 33 q 518 2 545 12 q 460 -14 492 -7 q 393 -21 428 -21 q 279 -6 327 -21 q 202 38 232 9 q 158 112 172 68 q 144 214 144 155 l 144 510 l 28 510 l 28 596 l 253 596 l 253 236 q 259 169 253 199 q 282 115 265 138 q 327 80 298 93 q 400 68 355 68 q 470 75 438 68 q 525 92 501 82 q 575 115 552 102 l 575 510 l 458 510 l 458 596 z "},"v":{"ha":832,"x_min":19,"x_max":809,"o":"m 19 596 l 312 596 l 312 510 l 248 510 l 422 96 l 597 510 l 536 510 l 536 596 l 809 596 l 809 510 l 701 510 l 473 0 l 355 0 l 134 510 l 19 510 l 19 596 z "},"w":{"ha":1129,"x_min":20,"x_max":1109,"o":"m 20 596 l 307 596 l 307 510 l 244 510 l 385 127 l 523 511 l 628 511 l 755 125 l 899 510 l 838 510 l 838 596 l 1109 596 l 1109 510 l 991 510 l 798 0 l 693 0 l 568 375 l 433 0 l 326 0 l 137 510 l 20 510 l 20 596 z "},"x":{"ha":846,"x_min":49,"x_max":808,"o":"m 492 86 l 554 86 l 410 237 l 282 86 l 343 86 l 343 0 l 49 0 l 49 86 l 170 86 l 350 301 l 153 510 l 49 510 l 49 596 l 364 596 l 364 510 l 289 510 l 437 353 l 567 510 l 505 510 l 505 596 l 783 596 l 783 510 l 679 510 l 496 292 l 692 86 l 808 86 l 808 0 l 492 0 l 492 86 z "},"y":{"ha":806,"x_min":20,"x_max":786,"o":"m 20 596 l 309 596 l 309 510 l 231 510 l 418 40 l 585 510 l 508 510 l 508 596 l 786 596 l 786 510 l 686 510 l 455 -138 q 372 -268 423 -226 q 241 -310 320 -310 q 211 -308 227 -310 q 182 -303 195 -306 q 161 -299 169 -301 q 153 -296 153 -296 l 170 -212 q 199 -219 185 -216 q 223 -223 210 -222 q 247 -225 237 -225 q 273 -221 258 -225 q 302 -207 288 -218 q 332 -176 317 -196 q 358 -123 347 -156 l 369 -92 l 119 510 l 20 510 l 20 596 z "},"z":{"ha":647,"x_min":64,"x_max":593,"o":"m 64 452 l 91 596 l 563 596 l 563 526 l 194 86 l 486 86 l 500 170 l 593 153 l 564 0 l 70 0 l 70 74 l 435 510 l 169 510 l 155 432 l 64 452 z "},"{":{"ha":428,"x_min":20,"x_max":380,"o":"m 368 -182 q 207 -115 256 -174 q 158 52 158 -56 l 158 207 q 158 239 158 220 q 155 275 158 258 q 144 304 152 292 q 121 317 136 317 l 20 317 l 20 393 l 121 393 q 144 406 136 393 q 155 435 152 418 q 158 471 158 452 q 158 503 158 490 l 158 672 q 207 838 158 779 q 368 905 256 897 l 380 821 q 316 801 340 816 q 278 764 292 787 q 261 712 265 742 q 256 650 256 683 l 256 475 q 237 397 256 425 q 186 354 218 369 q 237 312 218 340 q 256 235 256 283 l 256 74 q 261 11 256 40 q 278 -41 265 -18 q 316 -78 292 -63 q 380 -97 340 -92 l 368 -182 z "},"|":{"ha":311,"x_min":106,"x_max":205,"o":"m 106 907 l 205 907 l 205 -288 l 106 -288 l 106 907 z "},"}":{"ha":429,"x_min":48,"x_max":408,"o":"m 48 -97 q 112 -78 87 -92 q 150 -41 136 -63 q 168 11 163 -18 q 172 74 172 40 l 172 235 q 191 312 172 283 q 243 354 210 340 q 191 397 210 369 q 172 475 172 425 l 172 650 q 168 712 172 683 q 150 764 163 742 q 112 801 136 787 q 48 821 87 816 l 61 905 q 221 838 172 897 q 271 672 271 779 l 271 503 q 271 471 271 490 q 274 435 271 452 q 284 406 277 418 q 308 393 292 393 l 408 393 l 408 317 l 308 317 q 284 304 292 317 q 274 275 277 292 q 271 239 271 258 q 271 207 271 220 l 271 52 q 221 -115 271 -56 q 61 -182 172 -174 l 48 -97 z "},"~":{"ha":717,"x_min":94,"x_max":623,"o":"m 352 262 q 302 284 330 274 q 247 295 273 295 q 233 294 239 295 q 220 292 227 294 q 188 280 203 286 q 162 268 173 273 q 146 259 152 262 q 141 256 140 256 l 94 330 q 126 350 108 340 q 165 368 144 360 q 208 382 186 376 q 252 387 230 387 q 319 378 291 387 q 372 359 348 370 q 419 339 396 348 q 471 330 442 330 q 483 331 477 330 q 495 334 489 332 q 528 346 513 339 q 554 358 543 353 q 570 368 564 364 q 576 372 576 372 l 623 297 l 593 279 q 528 249 563 261 q 458 237 494 237 q 398 244 426 237 q 352 262 371 252 z "}," ":{"ha":313,"x_min":0,"x_max":0,"o":"z "},"¡":{"ha":313,"x_min":70,"x_max":242,"o":"m 213 -289 l 103 -289 l 115 338 l 196 338 l 213 -289 m 242 530 q 235 498 242 513 q 216 470 228 482 q 189 451 204 458 q 156 444 173 444 q 122 451 138 444 q 95 470 106 458 q 77 498 83 482 q 70 530 70 513 q 77 564 70 548 q 95 591 83 579 q 122 610 106 603 q 156 616 138 616 q 189 610 173 616 q 216 591 204 603 q 235 564 228 579 q 242 530 242 548 z "},"¢":{"ha":637,"x_min":47,"x_max":585,"o":"m 481 522 l 463 618 q 439 626 456 621 q 393 635 422 631 l 393 180 q 450 195 424 185 q 496 214 477 204 q 539 237 519 225 l 585 170 q 570 159 585 169 q 530 135 555 149 q 469 110 504 122 q 393 92 434 97 l 393 -104 l 297 -104 l 297 92 q 195 125 241 100 q 116 191 149 151 q 65 285 83 231 q 47 407 47 340 q 65 528 47 473 q 116 623 83 583 q 195 688 149 663 q 297 721 241 713 l 297 905 l 393 905 l 393 724 q 458 716 430 721 q 504 705 486 711 q 541 692 526 699 l 570 542 l 481 522 m 159 407 q 193 256 159 314 q 297 183 227 199 l 297 631 q 193 557 227 615 q 159 407 159 500 z "},"£":{"ha":690,"x_min":58,"x_max":645,"o":"m 85 454 l 188 454 q 183 542 184 501 q 182 618 182 583 q 199 707 182 667 q 245 777 216 748 q 317 823 275 806 q 408 839 358 839 q 460 835 438 839 q 501 824 483 831 q 534 807 519 817 q 564 786 549 798 l 589 618 l 496 606 l 475 733 q 448 742 463 739 q 409 746 432 746 q 326 714 358 746 q 294 621 294 682 q 294 594 294 611 q 295 555 294 577 q 298 507 296 533 q 300 454 299 481 l 496 454 l 496 358 l 306 358 l 310 318 q 312 301 311 310 q 312 285 312 293 q 295 184 312 225 q 252 115 277 144 q 278 120 264 119 q 304 122 291 122 q 348 115 327 122 q 390 101 369 109 q 434 86 412 93 q 481 79 456 79 q 525 86 505 79 q 561 100 545 92 q 593 122 578 110 l 645 41 q 630 31 638 37 q 613 21 623 26 q 595 11 604 16 q 534 -11 568 -1 q 471 -21 500 -21 q 428 -18 448 -21 q 392 -10 408 -14 q 364 -1 376 -5 q 348 7 353 4 q 301 27 327 18 q 245 37 275 37 q 199 30 222 37 q 159 12 177 22 q 128 -7 140 2 q 113 -18 116 -16 l 58 56 q 66 62 62 59 q 76 70 71 66 q 87 79 81 74 q 123 114 102 93 q 161 164 143 136 q 192 229 180 193 q 205 307 205 265 q 204 325 205 315 q 202 343 203 334 l 199 358 l 85 358 l 85 454 z "},"¤":{"ha":732,"x_min":81,"x_max":651,"o":"m 130 325 q 142 400 130 365 q 176 464 155 435 l 81 528 l 132 602 l 245 524 q 303 547 271 539 q 368 555 334 555 q 431 548 401 555 q 488 525 461 540 l 601 602 l 650 529 l 558 467 q 595 401 582 437 q 608 325 608 366 q 596 250 608 285 q 562 187 584 216 l 651 129 l 601 56 l 492 127 q 433 105 464 113 q 368 97 402 97 q 301 105 333 97 q 243 129 270 113 l 132 54 l 81 127 l 175 189 q 142 251 154 218 q 130 325 130 285 m 220 325 q 232 267 220 294 q 263 220 243 240 q 310 188 283 199 q 368 176 337 176 q 427 188 399 176 q 474 220 454 199 q 505 267 494 240 q 516 325 516 294 q 505 384 516 356 q 474 432 494 411 q 427 464 454 452 q 368 476 399 476 q 310 464 337 476 q 263 432 283 452 q 232 384 243 411 q 220 325 220 356 z "},"¥":{"ha":975,"x_min":41,"x_max":935,"o":"m 41 818 l 374 818 l 374 722 l 300 722 l 496 478 l 682 722 l 606 722 l 606 818 l 935 818 l 935 722 l 802 722 l 561 408 l 770 408 l 770 328 l 543 328 l 543 264 l 770 264 l 770 183 l 543 183 l 542 96 l 672 96 l 672 0 l 301 0 l 301 96 l 432 96 l 432 183 l 204 183 l 204 264 l 432 264 l 432 328 l 204 328 l 204 408 l 412 408 l 158 722 l 41 722 l 41 818 z "},"¦":{"ha":320,"x_min":111,"x_max":209,"o":"m 111 907 l 209 907 l 209 416 l 111 416 l 111 907 m 111 200 l 209 200 l 209 -290 l 111 -290 l 111 200 z "},"§":{"ha":678,"x_min":81,"x_max":604,"o":"m 484 644 l 467 737 q 419 752 449 745 q 345 760 389 760 q 284 754 312 760 q 236 738 256 749 q 203 711 215 727 q 191 673 191 694 q 208 635 191 652 q 247 607 224 619 q 297 586 271 594 q 345 572 323 577 q 448 540 401 557 q 530 499 496 523 q 585 445 565 476 q 604 370 604 413 q 589 318 604 343 q 553 272 574 292 q 510 236 532 251 q 472 214 487 220 q 523 188 500 202 q 562 156 545 174 q 587 116 578 138 q 595 64 595 93 q 573 -18 595 18 q 516 -79 551 -54 q 436 -117 480 -104 q 346 -131 391 -131 q 252 -120 294 -131 q 182 -96 211 -109 q 136 -72 153 -83 q 119 -60 120 -60 l 97 62 l 182 79 l 197 -7 q 249 -30 215 -20 q 338 -40 282 -40 q 390 -34 363 -40 q 441 -16 418 -28 q 478 13 464 -5 q 493 52 493 30 q 474 97 493 79 q 427 126 456 115 q 363 147 398 138 q 297 164 329 155 q 217 190 256 176 q 148 225 178 204 q 99 278 118 247 q 81 353 81 309 q 95 414 81 389 q 129 457 109 440 q 173 484 149 474 q 215 498 196 494 q 165 523 189 509 q 124 556 142 536 q 97 601 107 575 q 87 660 87 626 q 104 730 87 698 q 152 787 121 763 q 230 825 184 811 q 334 839 275 839 q 430 829 387 839 q 501 807 473 819 q 520 799 511 803 q 534 791 528 795 q 546 785 541 788 l 568 661 l 484 644 m 501 351 q 485 398 501 380 q 442 430 469 417 q 381 451 415 442 q 310 469 347 460 q 269 461 291 467 q 228 445 247 455 q 196 417 209 434 q 183 375 183 400 q 196 328 182 348 q 231 295 210 309 q 277 272 252 281 q 322 258 301 263 q 359 248 341 253 q 394 239 376 243 q 429 256 410 245 q 464 282 448 267 q 491 314 480 297 q 501 351 501 332 z "},"¨":{"ha":490,"x_min":41,"x_max":444,"o":"m 197 754 q 191 724 197 738 q 174 699 184 710 q 149 682 163 688 q 119 676 135 676 q 89 682 103 676 q 64 699 75 688 q 47 724 54 710 q 41 754 41 738 q 47 784 41 770 q 64 809 54 798 q 89 826 75 819 q 119 832 103 832 q 149 826 135 832 q 174 809 163 819 q 191 784 184 798 q 197 754 197 770 m 444 754 q 438 724 444 738 q 421 699 432 710 q 396 682 410 688 q 367 676 382 676 q 336 682 351 676 q 312 699 322 688 q 295 724 301 710 q 289 754 289 738 q 295 784 289 770 q 312 809 301 798 q 336 826 322 819 q 367 832 351 832 q 396 826 382 832 q 421 809 410 819 q 438 784 432 798 q 444 754 444 770 z "},"©":{"ha":1124,"x_min":65,"x_max":1058,"o":"m 782 290 l 746 179 q 701 162 726 170 q 648 151 679 156 q 581 146 618 146 q 472 162 520 146 q 390 212 424 179 q 337 294 355 245 q 317 407 318 342 q 335 522 317 473 q 388 605 354 572 q 471 655 422 638 q 581 672 520 672 q 652 665 621 672 q 705 648 684 657 q 749 624 730 637 l 781 525 l 704 501 l 679 568 q 656 578 669 574 q 628 585 645 582 q 589 589 612 589 q 510 575 543 589 q 456 537 477 562 q 425 480 435 513 q 415 408 415 447 q 426 337 415 370 q 457 280 436 304 q 512 242 479 256 q 589 228 545 228 q 623 231 606 228 q 652 237 640 233 q 672 244 665 241 q 680 249 680 248 l 701 314 l 782 290 m 65 407 q 102 608 65 516 q 206 765 140 699 q 364 868 273 831 q 564 905 455 905 q 762 868 671 905 q 919 765 853 831 q 1021 608 984 699 q 1058 407 1058 516 q 1041 271 1058 336 q 994 152 1025 207 q 919 53 963 97 q 819 -22 874 9 q 700 -71 764 -54 q 564 -87 635 -87 q 364 -50 455 -87 q 206 53 273 -13 q 102 209 140 119 q 65 407 65 300 m 153 400 q 182 242 153 315 q 264 115 211 169 q 392 31 317 61 q 558 0 467 0 q 725 31 649 0 q 855 115 800 61 q 940 242 909 169 q 970 400 970 315 q 940 565 970 488 q 855 697 909 642 q 725 786 800 753 q 558 818 649 818 q 392 786 467 818 q 264 697 317 753 q 182 565 211 642 q 153 400 153 488 z "},"ª":{"ha":542,"x_min":77,"x_max":484,"o":"m 99 507 l 114 591 q 168 608 134 600 q 240 616 203 616 q 332 601 299 616 q 380 561 364 585 q 398 507 395 536 q 401 452 401 478 l 401 309 l 484 282 l 463 218 l 343 258 q 292 231 321 241 q 225 221 262 221 q 161 231 189 221 q 114 256 133 240 q 86 295 96 273 q 77 342 77 317 q 88 393 77 372 q 119 428 100 414 q 165 447 139 441 q 220 453 191 453 l 322 452 q 320 500 322 488 q 310 525 318 513 q 286 545 302 538 q 243 551 269 551 q 204 548 222 551 q 175 542 186 545 l 164 494 l 99 507 m 229 285 q 287 297 263 285 q 322 319 310 309 l 322 390 l 222 390 q 198 388 210 390 q 177 381 186 387 q 163 366 168 376 q 157 339 157 355 q 178 298 157 312 q 229 285 199 285 z "},"«":{"ha":564,"x_min":54,"x_max":484,"o":"m 344 52 l 275 3 l 54 301 l 275 600 l 344 551 l 166 301 l 344 52 m 484 140 l 408 96 l 267 301 l 408 507 l 484 463 l 376 301 l 484 140 z "},"¬":{"ha":819,"x_min":78,"x_max":713,"o":"m 78 593 l 713 593 l 713 307 l 604 307 l 604 497 l 78 497 l 78 593 z "},"­":{"ha":532,"x_min":85,"x_max":447,"o":"m 85 326 l 85 431 l 447 431 l 447 326 l 85 326 z "},"®":{"ha":876,"x_min":80,"x_max":795,"o":"m 80 498 q 107 641 80 576 q 182 755 134 707 q 295 830 230 803 q 438 857 361 857 q 581 830 515 857 q 694 755 646 803 q 769 641 742 707 q 795 498 795 576 q 769 356 795 421 q 694 243 742 291 q 581 169 646 195 q 438 142 515 142 q 295 169 361 142 q 182 243 230 195 q 107 356 134 291 q 80 498 80 421 m 161 493 q 181 382 161 433 q 237 292 201 330 q 324 233 273 254 q 437 211 375 211 q 549 233 498 211 q 637 292 600 254 q 694 382 673 330 q 715 493 715 433 q 694 608 715 555 q 637 702 673 662 q 549 764 600 741 q 437 786 498 786 q 324 764 375 786 q 237 702 273 741 q 181 608 201 662 q 161 493 161 555 m 635 313 l 528 313 l 450 454 l 401 454 l 401 374 l 443 374 l 443 313 l 276 313 l 276 374 l 333 374 l 333 635 l 276 635 l 276 694 l 451 694 q 519 687 492 694 q 563 665 547 680 q 587 627 580 650 q 594 572 594 604 q 575 504 594 530 q 522 467 555 478 l 574 374 l 635 374 l 635 313 m 402 635 l 402 517 l 452 517 q 477 518 465 517 q 500 526 490 520 q 516 543 510 532 q 523 571 523 553 q 518 605 523 592 q 503 624 513 617 q 479 633 493 631 q 450 635 466 635 l 402 635 z "},"¯":{"ha":509,"x_min":50,"x_max":465,"o":"m 50 790 l 465 790 l 465 694 l 50 694 l 50 790 z "},"°":{"ha":433,"x_min":75,"x_max":358,"o":"m 358 696 q 347 635 358 661 q 315 590 335 608 q 270 563 296 572 q 216 554 245 554 q 163 563 189 554 q 118 590 138 572 q 87 635 99 608 q 75 696 75 661 q 87 757 75 730 q 118 802 99 783 q 163 829 138 820 q 216 839 189 839 q 270 829 245 839 q 315 802 296 820 q 347 757 335 783 q 358 696 358 730 m 149 696 q 154 664 149 678 q 170 641 160 650 q 191 627 179 632 q 216 623 203 623 q 263 641 243 623 q 283 696 283 660 q 263 751 283 732 q 216 770 243 770 q 191 765 203 770 q 170 751 179 760 q 154 727 160 741 q 149 696 149 713 z "},"±":{"ha":720,"x_min":102,"x_max":618,"o":"m 102 585 l 308 585 l 308 794 l 412 794 l 412 585 l 618 585 l 618 489 l 412 489 l 412 278 l 308 278 l 308 489 l 102 489 l 102 585 m 102 191 l 618 191 l 618 94 l 102 94 l 102 191 z "},"²":{"ha":549,"x_min":83,"x_max":484,"o":"m 378 393 l 422 464 l 484 433 l 416 322 l 98 322 l 83 363 q 107 425 90 397 q 145 474 123 452 q 190 514 166 496 q 238 549 214 532 q 279 579 259 564 q 316 611 300 594 q 341 646 332 627 q 351 686 351 665 q 346 715 351 701 q 329 741 340 729 q 300 760 318 753 q 255 768 281 768 q 210 759 230 768 q 174 740 190 751 q 145 714 159 728 l 87 769 q 127 803 104 788 q 182 828 151 817 q 254 839 213 839 q 330 828 296 839 q 387 796 363 817 q 424 748 411 776 q 437 686 437 720 q 424 627 437 654 q 390 577 411 600 q 344 535 370 555 q 292 498 318 516 q 256 474 273 486 q 224 449 239 462 q 198 422 209 436 q 181 393 187 408 l 378 393 z "},"³":{"ha":526,"x_min":73,"x_max":446,"o":"m 126 431 q 163 406 142 416 q 205 388 181 396 q 259 380 230 380 q 303 387 284 380 q 335 405 322 393 q 354 431 348 416 q 361 463 361 446 q 347 512 361 495 q 315 537 334 530 q 275 545 296 545 q 240 546 254 546 l 194 546 l 194 618 l 258 618 q 324 634 300 618 q 348 692 348 651 q 339 729 348 715 q 316 752 330 744 q 286 764 302 761 q 254 768 269 768 q 210 761 229 768 q 177 744 191 753 q 156 726 163 734 q 149 717 149 718 l 87 777 q 104 791 91 781 q 137 812 117 801 q 188 831 158 823 q 255 839 217 839 q 327 828 294 839 q 383 799 359 818 q 419 752 406 779 q 433 692 433 725 q 427 655 433 672 q 413 626 422 639 q 392 602 404 612 q 368 586 380 592 q 397 570 382 581 q 422 544 411 559 q 439 508 433 528 q 446 464 446 488 q 435 407 446 435 q 402 358 425 379 q 344 323 380 336 q 256 310 308 310 q 178 320 212 310 q 121 342 144 330 q 73 374 94 355 l 126 431 z "},"´":{"ha":515,"x_min":46,"x_max":395,"o":"m 346 878 l 395 786 l 71 639 l 46 684 l 346 878 z "},"µ":{"ha":837,"x_min":129,"x_max":799,"o":"m 236 -50 q 242 -130 237 -96 q 261 -184 248 -163 q 296 -215 274 -205 q 351 -225 318 -225 q 378 -223 365 -225 q 401 -219 391 -222 q 421 -214 412 -217 l 439 -297 q 390 -308 417 -304 q 338 -311 363 -311 q 193 -265 252 -311 q 158 -224 171 -248 q 139 -174 145 -201 q 131 -115 132 -146 q 129 -52 129 -84 l 129 596 l 237 596 l 237 309 q 244 201 237 246 q 267 126 250 156 q 312 82 283 96 q 385 68 340 68 q 454 75 422 68 q 511 93 486 83 q 559 117 536 103 l 559 596 l 668 596 l 668 110 l 799 65 l 771 -24 l 582 41 q 549 23 570 34 q 503 3 529 13 q 444 -14 476 -7 q 378 -21 412 -21 q 326 -16 349 -21 q 286 -2 303 -10 q 256 17 269 7 q 235 35 243 26 l 236 -50 z "},"¶":{"ha":824,"x_min":47,"x_max":758,"o":"m 436 0 l 207 0 l 207 96 l 342 96 l 342 416 l 292 416 q 177 430 224 416 q 102 469 131 443 q 60 533 73 494 q 47 624 47 572 q 64 708 47 672 q 112 769 81 745 q 182 806 142 793 q 271 818 223 818 l 758 818 l 758 722 l 631 722 l 631 96 l 753 96 l 753 0 l 536 0 l 536 722 l 436 722 l 436 0 z "},"·":{"ha":359,"x_min":94,"x_max":266,"o":"m 266 306 q 259 272 266 288 q 240 245 252 256 q 213 227 229 233 q 180 220 197 220 q 147 227 163 220 q 119 245 131 233 q 101 272 108 256 q 94 306 94 288 q 101 339 94 323 q 119 367 108 355 q 147 385 131 378 q 180 392 163 392 q 213 385 197 392 q 240 367 229 378 q 259 339 252 355 q 266 306 266 323 z "},"¸":{"ha":353,"x_min":26,"x_max":325,"o":"m 175 -87 q 286 -113 247 -87 q 325 -196 325 -139 q 313 -248 325 -227 q 280 -283 300 -269 q 232 -303 259 -297 q 175 -310 205 -310 q 114 -302 141 -310 q 67 -284 87 -294 q 38 -267 48 -275 q 26 -258 27 -258 l 57 -207 q 90 -225 73 -218 q 127 -237 106 -232 q 172 -243 149 -243 q 231 -231 212 -243 q 249 -196 249 -219 q 246 -177 249 -186 q 233 -162 243 -168 q 205 -152 223 -155 q 157 -149 187 -149 l 106 -149 l 106 43 q 175 29 106 42 l 175 -87 z "},"¹":{"ha":512,"x_min":80,"x_max":447,"o":"m 80 663 l 269 818 l 323 818 l 321 383 l 447 383 l 447 313 l 100 313 l 100 383 l 238 383 l 239 699 l 126 606 l 80 663 z "},"º":{"ha":530,"x_min":76,"x_max":454,"o":"m 264 224 q 188 237 222 224 q 129 275 153 250 q 90 337 104 300 q 76 419 76 373 q 90 503 76 466 q 129 565 104 540 q 188 603 153 590 q 264 616 222 616 q 341 603 307 616 q 401 565 376 590 q 440 503 427 540 q 454 419 454 466 q 440 337 454 373 q 401 275 427 300 q 341 237 376 250 q 264 224 307 224 m 265 550 q 183 516 210 550 q 155 419 155 482 q 183 324 155 357 q 265 290 210 290 q 347 324 319 290 q 375 419 375 357 q 347 516 375 482 q 265 550 319 550 z "},"»":{"ha":564,"x_min":80,"x_max":511,"o":"m 398 301 l 220 551 l 290 600 l 511 301 l 290 3 l 220 52 l 398 301 m 190 301 l 80 463 l 157 507 l 297 301 l 157 96 l 80 140 l 190 301 z "},"¼":{"ha":1105,"x_min":47,"x_max":1060,"o":"m 981 138 l 981 67 l 1057 67 l 1057 0 l 814 0 l 814 67 l 901 67 l 901 138 l 660 138 l 660 179 l 821 536 l 889 496 l 790 292 l 750 204 l 901 204 l 901 433 l 982 433 l 981 204 l 1060 205 l 1060 138 l 981 138 m 418 -106 l 328 -106 l 732 905 l 821 905 l 418 -106 m 47 663 l 236 818 l 290 818 l 289 383 l 414 383 l 414 313 l 67 313 l 67 383 l 205 383 l 207 699 l 94 606 l 47 663 z "},"½":{"ha":1155,"x_min":53,"x_max":1114,"o":"m 418 -106 l 328 -106 l 732 905 l 821 905 l 418 -106 m 53 663 l 241 818 l 296 818 l 294 383 l 420 383 l 420 313 l 73 313 l 73 383 l 211 383 l 212 699 l 99 606 l 53 663 m 1008 71 l 1052 142 l 1114 112 l 1045 1 l 727 1 l 712 42 q 736 103 720 76 q 774 152 753 130 q 820 193 795 174 q 867 227 844 211 q 909 257 888 242 q 945 289 929 273 q 970 325 961 306 q 980 365 980 343 q 975 393 980 379 q 959 419 970 408 q 929 439 947 431 q 884 446 911 446 q 839 438 859 446 q 804 418 819 429 q 774 393 788 407 l 716 448 q 757 481 734 467 q 811 507 780 496 q 883 517 842 517 q 959 506 925 517 q 1017 475 993 495 q 1053 426 1040 454 q 1066 365 1066 398 q 1053 306 1066 332 q 1020 256 1040 279 q 973 214 999 233 q 922 177 947 195 q 885 153 903 165 q 853 127 868 140 q 827 101 838 115 q 810 71 817 87 l 1008 71 z "},"¾":{"ha":1096,"x_min":45,"x_max":1052,"o":"m 972 138 l 972 67 l 1049 67 l 1049 0 l 806 0 l 806 67 l 893 67 l 893 138 l 652 138 l 652 179 l 812 536 l 881 496 l 782 292 l 742 204 l 893 204 l 893 433 l 974 433 l 972 204 l 1052 205 l 1052 138 l 972 138 m 400 -106 l 310 -106 l 714 905 l 803 905 l 400 -106 m 98 431 q 135 406 114 416 q 177 388 153 396 q 231 380 201 380 q 275 387 256 380 q 307 405 294 393 q 326 431 319 416 q 332 463 332 446 q 319 512 332 495 q 286 537 305 530 q 247 545 267 545 q 212 546 226 546 l 165 546 l 165 618 l 229 618 q 295 634 271 618 q 319 692 319 651 q 310 729 319 715 q 288 752 301 744 q 257 764 274 761 q 225 768 240 768 q 181 761 201 768 q 149 744 162 753 q 128 726 135 734 q 120 717 121 718 l 58 777 q 75 791 62 781 q 109 812 88 801 q 159 831 130 823 q 227 839 189 839 q 298 828 266 839 q 354 799 331 818 q 391 752 378 779 q 404 692 404 725 q 399 655 404 672 q 384 626 393 639 q 363 602 375 612 q 339 586 351 592 q 368 570 354 581 q 393 544 382 559 q 411 508 404 528 q 417 464 417 488 q 407 407 417 435 q 374 358 397 379 q 315 323 351 336 q 228 310 279 310 q 150 320 184 310 q 92 342 116 330 q 45 374 65 355 l 98 431 z "},"¿":{"ha":591,"x_min":41,"x_max":549,"o":"m 200 111 q 240 132 221 123 q 275 151 260 141 q 299 172 290 161 q 309 197 309 182 q 302 222 309 211 q 286 241 296 233 q 266 256 277 250 q 248 267 256 262 l 301 340 q 310 336 302 340 q 331 323 319 332 q 358 303 344 315 q 385 275 373 292 q 406 236 397 258 q 414 187 414 214 q 398 129 414 154 q 362 87 383 104 q 320 57 342 69 q 283 37 298 45 q 238 12 260 24 q 199 -16 216 -1 q 170 -52 181 -32 q 159 -100 159 -72 q 167 -131 159 -114 q 192 -162 175 -148 q 235 -186 209 -176 q 298 -196 262 -196 q 382 -189 348 -196 q 437 -174 416 -182 l 457 -56 l 549 -65 l 525 -236 q 511 -244 524 -236 q 473 -262 499 -252 q 403 -281 446 -273 q 297 -289 360 -289 q 179 -269 227 -289 q 100 -221 130 -250 q 55 -159 69 -192 q 41 -98 41 -125 q 81 19 41 -31 q 200 111 120 68 m 393 510 q 386 476 393 492 q 367 449 379 460 q 340 431 355 437 q 307 424 324 424 q 274 431 290 424 q 246 449 258 437 q 228 476 235 460 q 221 510 221 492 q 228 543 221 527 q 246 570 235 558 q 274 589 258 582 q 307 596 290 596 q 340 589 324 596 q 367 570 355 582 q 386 543 379 558 q 393 510 393 527 z "},"À":{"ha":899,"x_min":9,"x_max":884,"o":"m 884 0 l 547 0 l 547 96 l 634 96 l 591 222 l 291 222 l 243 96 l 332 96 l 332 0 l 9 0 l 9 96 l 141 96 l 372 722 l 231 722 l 231 818 l 502 818 l 752 96 l 884 96 l 884 0 m 326 318 l 557 318 l 447 677 l 326 318 m 511 942 l 499 892 l 149 957 l 174 1059 l 511 942 z "},"Á":{"ha":899,"x_min":9,"x_max":884,"o":"m 884 0 l 547 0 l 547 96 l 634 96 l 591 222 l 291 222 l 243 96 l 332 96 l 332 0 l 9 0 l 9 96 l 141 96 l 372 722 l 231 722 l 231 818 l 502 818 l 752 96 l 884 96 l 884 0 m 326 318 l 557 318 l 447 677 l 326 318 m 716 1053 l 741 951 l 391 886 l 379 936 l 716 1053 z "},"Â":{"ha":899,"x_min":9,"x_max":884,"o":"m 884 0 l 547 0 l 547 96 l 634 96 l 591 222 l 291 222 l 243 96 l 332 96 l 332 0 l 9 0 l 9 96 l 141 96 l 372 722 l 231 722 l 231 818 l 502 818 l 752 96 l 884 96 l 884 0 m 326 318 l 557 318 l 447 677 l 326 318 m 446 1080 l 656 932 l 631 887 l 446 979 l 262 887 l 237 932 l 446 1080 z "},"Ã":{"ha":899,"x_min":9,"x_max":884,"o":"m 884 0 l 547 0 l 547 96 l 634 96 l 591 222 l 291 222 l 243 96 l 332 96 l 332 0 l 9 0 l 9 96 l 141 96 l 372 722 l 231 722 l 231 818 l 502 818 l 752 96 l 884 96 l 884 0 m 326 318 l 557 318 l 447 677 l 326 318 m 447 1011 q 470 995 458 1003 q 492 979 481 986 q 516 967 504 972 q 544 963 529 963 q 587 972 563 963 q 642 1006 610 982 l 687 951 q 653 925 671 939 q 615 900 635 911 q 574 882 595 889 q 529 875 552 875 q 489 881 509 875 q 447 903 469 888 q 424 919 435 911 q 401 935 413 928 q 377 947 389 942 q 349 951 364 951 q 307 942 330 951 q 252 908 283 932 l 207 962 q 240 989 222 975 q 278 1013 258 1002 q 320 1031 298 1024 q 364 1038 341 1038 q 405 1032 384 1038 q 447 1011 425 1025 z "},"Ä":{"ha":899,"x_min":9,"x_max":884,"o":"m 884 0 l 547 0 l 547 96 l 634 96 l 591 222 l 291 222 l 243 96 l 332 96 l 332 0 l 9 0 l 9 96 l 141 96 l 372 722 l 231 722 l 231 818 l 502 818 l 752 96 l 884 96 l 884 0 m 326 318 l 557 318 l 447 677 l 326 318 m 401 969 q 394 939 401 953 q 377 914 388 925 q 353 897 367 903 q 323 891 338 891 q 293 897 307 891 q 268 914 279 903 q 251 939 257 925 q 245 969 245 953 q 251 999 245 985 q 268 1024 257 1013 q 293 1041 279 1034 q 323 1047 307 1047 q 353 1041 338 1047 q 377 1024 367 1034 q 394 999 388 1013 q 401 969 401 985 m 648 969 q 642 939 648 953 q 625 914 635 925 q 600 897 614 903 q 570 891 586 891 q 540 897 554 891 q 515 914 526 903 q 498 939 505 925 q 492 969 492 953 q 498 999 492 985 q 515 1024 505 1013 q 540 1041 526 1034 q 570 1047 554 1047 q 600 1041 586 1047 q 625 1024 614 1034 q 642 999 635 1013 q 648 969 648 985 z "},"Å":{"ha":899,"x_min":9,"x_max":884,"o":"m 884 0 l 547 0 l 547 96 l 634 96 l 591 222 l 291 222 l 243 96 l 332 96 l 332 0 l 9 0 l 9 96 l 141 96 l 372 722 l 231 722 l 231 818 l 502 818 l 752 96 l 884 96 l 884 0 m 326 318 l 557 318 l 447 677 l 326 318 m 328 998 q 337 1044 328 1023 q 363 1082 347 1066 q 401 1108 379 1099 q 447 1118 422 1118 q 493 1108 471 1118 q 531 1082 515 1099 q 557 1044 547 1066 q 566 998 566 1023 q 557 952 566 974 q 531 914 547 930 q 493 888 515 898 q 447 879 471 879 q 401 888 422 879 q 363 914 379 898 q 337 952 347 930 q 328 998 328 974 m 393 998 q 397 978 393 987 q 409 960 401 968 q 426 948 416 953 q 447 944 436 944 q 468 948 458 944 q 485 960 477 953 q 497 978 492 968 q 501 998 501 987 q 497 1019 501 1009 q 485 1036 492 1029 q 468 1048 477 1044 q 447 1053 458 1053 q 426 1048 436 1053 q 409 1036 416 1044 q 397 1019 401 1029 q 393 998 393 1009 z "},"Æ":{"ha":1259,"x_min":9,"x_max":1200,"o":"m 522 96 l 653 96 l 653 222 l 339 222 l 260 96 l 342 96 l 342 0 l 9 0 l 9 96 l 148 96 l 545 722 l 401 722 l 401 818 l 1101 818 l 1173 604 l 1081 574 l 1025 722 l 766 722 l 766 457 l 988 457 l 988 361 l 764 361 l 764 96 l 1053 96 l 1109 244 l 1200 214 l 1128 0 l 522 0 l 522 96 m 652 722 l 399 318 l 653 318 l 654 722 l 652 722 z "},"Ç":{"ha":825,"x_min":75,"x_max":756,"o":"m 753 192 l 719 31 q 651 5 689 16 q 573 -13 618 -5 q 471 -21 527 -21 q 460 -21 464 -21 q 447 -20 457 -21 l 447 -94 l 452 -94 q 565 -119 526 -94 q 605 -200 605 -144 q 592 -250 605 -229 q 559 -284 580 -271 q 510 -304 538 -298 q 451 -310 481 -310 q 396 -303 421 -310 q 351 -288 371 -296 q 318 -270 332 -279 q 300 -257 305 -261 l 333 -207 q 368 -227 349 -218 q 405 -240 383 -234 q 450 -245 426 -245 q 506 -232 488 -245 q 523 -200 523 -219 q 520 -182 523 -190 q 508 -168 517 -174 q 481 -159 498 -162 q 434 -155 463 -155 l 380 -155 l 380 -11 q 253 38 309 3 q 158 127 197 73 q 98 252 119 181 q 76 410 77 323 q 103 587 75 507 q 182 723 131 667 q 307 809 234 779 q 469 839 380 840 q 586 828 538 838 q 666 806 635 819 q 711 784 696 794 q 726 774 725 774 l 756 612 l 661 591 l 633 711 q 572 734 612 723 q 471 745 532 745 q 352 721 404 745 q 266 654 300 698 q 212 549 231 611 q 194 410 194 487 q 213 268 194 330 q 267 163 231 206 q 354 97 302 119 q 471 74 405 74 q 565 84 522 74 q 633 103 607 94 l 659 214 l 753 192 z "},"È":{"ha":841,"x_min":66,"x_max":783,"o":"m 783 214 l 711 0 l 66 0 l 66 96 l 198 96 l 199 722 l 67 722 l 67 818 l 683 818 l 755 604 l 663 574 l 608 722 l 311 722 l 311 471 l 570 471 l 570 375 l 311 375 l 309 96 l 635 96 l 691 244 l 783 214 m 446 942 l 434 892 l 84 957 l 109 1059 l 446 942 z "},"É":{"ha":841,"x_min":66,"x_max":783,"o":"m 783 214 l 711 0 l 66 0 l 66 96 l 198 96 l 199 722 l 67 722 l 67 818 l 683 818 l 755 604 l 663 574 l 608 722 l 311 722 l 311 471 l 570 471 l 570 375 l 311 375 l 309 96 l 635 96 l 691 244 l 783 214 m 602 1053 l 627 951 l 277 886 l 265 936 l 602 1053 z "},"Ê":{"ha":841,"x_min":66,"x_max":783,"o":"m 413 1080 l 623 932 l 597 887 l 413 979 l 229 887 l 203 932 l 413 1080 m 783 214 l 711 0 l 66 0 l 66 96 l 198 96 l 199 722 l 67 722 l 67 818 l 683 818 l 755 604 l 663 574 l 608 722 l 311 722 l 311 471 l 570 471 l 570 375 l 311 375 l 309 96 l 635 96 l 691 244 l 783 214 z "},"Ë":{"ha":841,"x_min":66,"x_max":783,"o":"m 783 214 l 711 0 l 66 0 l 66 96 l 198 96 l 199 722 l 67 722 l 67 818 l 683 818 l 755 604 l 663 574 l 608 722 l 311 722 l 311 471 l 570 471 l 570 375 l 311 375 l 309 96 l 635 96 l 691 244 l 783 214 m 373 969 q 367 939 373 953 q 350 914 360 925 q 325 897 339 903 q 295 891 311 891 q 265 897 279 891 q 240 914 251 903 q 223 939 229 925 q 217 969 217 953 q 223 999 217 985 q 240 1024 229 1013 q 265 1041 251 1034 q 295 1047 279 1047 q 325 1041 311 1047 q 350 1024 339 1034 q 367 999 360 1013 q 373 969 373 985 m 620 969 q 614 939 620 953 q 597 914 608 925 q 572 897 586 903 q 543 891 558 891 q 512 897 526 891 q 487 914 498 903 q 471 939 477 925 q 465 969 465 953 q 471 999 465 985 q 487 1024 477 1013 q 512 1041 498 1034 q 543 1047 526 1047 q 572 1041 558 1047 q 597 1024 586 1034 q 614 999 608 1013 q 620 969 620 985 z "},"Ì":{"ha":509,"x_min":-37,"x_max":442,"o":"m 67 818 l 442 818 l 442 722 l 312 722 l 309 96 l 442 96 l 442 0 l 66 0 l 66 96 l 199 96 l 199 722 l 67 722 l 67 818 m 325 942 l 313 892 l -37 957 l -12 1059 l 325 942 z "},"Í":{"ha":509,"x_min":66,"x_max":536,"o":"m 67 818 l 442 818 l 442 722 l 312 722 l 309 96 l 442 96 l 442 0 l 66 0 l 66 96 l 199 96 l 199 722 l 67 722 l 67 818 m 511 1053 l 536 951 l 186 886 l 174 936 l 511 1053 z "},"Î":{"ha":509,"x_min":43,"x_max":462,"o":"m 252 1080 l 462 932 l 437 887 l 252 979 l 68 887 l 43 932 l 252 1080 m 67 818 l 442 818 l 442 722 l 312 722 l 309 96 l 442 96 l 442 0 l 66 0 l 66 96 l 199 96 l 199 722 l 67 722 l 67 818 z "},"Ï":{"ha":509,"x_min":52,"x_max":454,"o":"m 67 818 l 442 818 l 442 722 l 312 722 l 309 96 l 442 96 l 442 0 l 66 0 l 66 96 l 199 96 l 199 722 l 67 722 l 67 818 m 208 969 q 201 939 208 953 q 184 914 195 925 q 159 897 174 903 q 130 891 145 891 q 99 897 113 891 q 75 914 85 903 q 58 939 64 925 q 52 969 52 953 q 58 999 52 985 q 75 1024 64 1013 q 99 1041 85 1034 q 130 1047 113 1047 q 159 1041 145 1047 q 184 1024 174 1034 q 201 999 195 1013 q 208 969 208 985 m 454 969 q 448 939 454 953 q 431 914 442 925 q 407 897 420 903 q 377 891 393 891 q 347 897 361 891 q 322 914 332 903 q 305 939 311 925 q 299 969 299 953 q 305 999 299 985 q 322 1024 311 1013 q 347 1041 332 1034 q 377 1047 361 1047 q 407 1041 393 1047 q 431 1024 420 1034 q 448 999 442 1013 q 454 969 454 985 z "},"Ð":{"ha":937,"x_min":69,"x_max":859,"o":"m 69 467 l 201 467 l 201 722 l 69 722 l 69 818 l 439 818 q 610 797 532 818 q 743 728 688 777 q 829 598 798 679 q 859 396 859 517 q 828 231 859 304 q 741 106 796 157 q 611 27 686 55 q 450 0 536 0 l 69 0 l 69 96 l 201 96 l 201 378 l 69 378 l 69 467 m 313 467 l 469 467 l 469 378 l 313 378 l 313 96 l 425 96 q 662 172 582 96 q 741 396 741 248 q 721 560 741 496 q 663 660 701 623 q 568 709 625 696 q 439 722 512 722 l 313 722 l 313 467 z "},"Ñ":{"ha":1022,"x_min":66,"x_max":973,"o":"m 612 818 l 973 818 l 973 722 l 840 722 l 840 0 l 703 0 l 308 722 l 311 96 l 427 96 l 427 0 l 66 0 l 66 96 l 198 96 l 197 722 l 67 722 l 67 818 l 373 818 l 728 170 l 728 722 l 612 722 l 612 818 m 524 1011 q 547 995 536 1003 q 570 979 558 986 q 594 967 581 972 q 621 963 606 963 q 664 972 640 963 q 719 1006 688 982 l 764 951 q 731 925 749 939 q 693 900 713 911 q 651 882 673 889 q 606 875 629 875 q 566 881 587 875 q 524 903 546 888 q 502 919 513 911 q 478 935 490 928 q 454 947 467 942 q 427 951 441 951 q 384 942 408 951 q 330 908 360 932 l 284 962 q 318 989 300 975 q 356 1013 336 1002 q 397 1031 376 1024 q 441 1038 418 1038 q 482 1032 461 1038 q 524 1011 503 1025 z "},"Ò":{"ha":910,"x_min":75,"x_max":836,"o":"m 455 745 q 339 722 389 745 q 258 656 290 699 q 209 551 225 613 q 193 410 193 489 q 209 268 193 330 q 258 163 225 206 q 339 97 290 119 q 455 74 389 74 q 570 97 521 74 q 652 163 620 119 q 701 268 685 206 q 718 410 718 330 q 701 551 718 489 q 652 656 685 613 q 570 722 620 699 q 455 745 521 745 m 455 -21 q 300 9 370 -21 q 180 95 231 39 q 102 231 130 151 q 75 410 75 311 q 102 588 75 509 q 180 723 130 667 q 299 809 230 779 q 454 839 369 839 q 609 809 539 839 q 730 723 680 779 q 808 588 781 667 q 836 410 836 509 q 808 231 836 311 q 731 95 781 151 q 611 9 681 39 q 455 -21 541 -21 m 519 942 l 507 892 l 157 957 l 182 1059 l 519 942 z "},"Ó":{"ha":910,"x_min":75,"x_max":836,"o":"m 455 745 q 339 722 389 745 q 258 656 290 699 q 209 551 225 613 q 193 410 193 489 q 209 268 193 330 q 258 163 225 206 q 339 97 290 119 q 455 74 389 74 q 570 97 521 74 q 652 163 620 119 q 701 268 685 206 q 718 410 718 330 q 701 551 718 489 q 652 656 685 613 q 570 722 620 699 q 455 745 521 745 m 455 -21 q 300 9 370 -21 q 180 95 231 39 q 102 231 130 151 q 75 410 75 311 q 102 588 75 509 q 180 723 130 667 q 299 809 230 779 q 454 839 369 839 q 609 809 539 839 q 730 723 680 779 q 808 588 781 667 q 836 410 836 509 q 808 231 836 311 q 731 95 781 151 q 611 9 681 39 q 455 -21 541 -21 m 705 1053 l 730 951 l 380 886 l 368 936 l 705 1053 z "},"Ô":{"ha":910,"x_min":75,"x_max":836,"o":"m 451 1080 l 661 932 l 635 887 l 451 979 l 267 887 l 241 932 l 451 1080 m 455 745 q 339 722 389 745 q 258 656 290 699 q 209 551 225 613 q 193 410 193 489 q 209 268 193 330 q 258 163 225 206 q 339 97 290 119 q 455 74 389 74 q 570 97 521 74 q 652 163 620 119 q 701 268 685 206 q 718 410 718 330 q 701 551 718 489 q 652 656 685 613 q 570 722 620 699 q 455 745 521 745 m 455 -21 q 300 9 370 -21 q 180 95 231 39 q 102 231 130 151 q 75 410 75 311 q 102 588 75 509 q 180 723 130 667 q 299 809 230 779 q 454 839 369 839 q 609 809 539 839 q 730 723 680 779 q 808 588 781 667 q 836 410 836 509 q 808 231 836 311 q 731 95 781 151 q 611 9 681 39 q 455 -21 541 -21 z "},"Õ":{"ha":910,"x_min":75,"x_max":836,"o":"m 455 745 q 339 722 389 745 q 258 656 290 699 q 209 551 225 613 q 193 410 193 489 q 209 268 193 330 q 258 163 225 206 q 339 97 290 119 q 455 74 389 74 q 570 97 521 74 q 652 163 620 119 q 701 268 685 206 q 718 410 718 330 q 701 551 718 489 q 652 656 685 613 q 570 722 620 699 q 455 745 521 745 m 455 -21 q 300 9 370 -21 q 180 95 231 39 q 102 231 130 151 q 75 410 75 311 q 102 588 75 509 q 180 723 130 667 q 299 809 230 779 q 454 839 369 839 q 609 809 539 839 q 730 723 680 779 q 808 588 781 667 q 836 410 836 509 q 808 231 836 311 q 731 95 781 151 q 611 9 681 39 q 455 -21 541 -21 m 452 1011 q 475 995 464 1003 q 498 979 486 986 q 522 967 509 972 q 549 963 534 963 q 592 972 568 963 q 647 1006 616 982 l 692 951 q 659 925 677 939 q 621 900 641 911 q 579 882 601 889 q 534 875 557 875 q 494 881 515 875 q 452 903 474 888 q 430 919 441 911 q 407 935 418 928 q 382 947 395 942 q 355 951 370 951 q 312 942 336 951 q 258 908 288 932 l 212 962 q 246 989 228 975 q 284 1013 264 1002 q 325 1031 304 1024 q 370 1038 347 1038 q 410 1032 389 1038 q 452 1011 431 1025 z "},"Ö":{"ha":910,"x_min":75,"x_max":836,"o":"m 455 745 q 339 722 389 745 q 258 656 290 699 q 209 551 225 613 q 193 410 193 489 q 209 268 193 330 q 258 163 225 206 q 339 97 290 119 q 455 74 389 74 q 570 97 521 74 q 652 163 620 119 q 701 268 685 206 q 718 410 718 330 q 701 551 718 489 q 652 656 685 613 q 570 722 620 699 q 455 745 521 745 m 455 -21 q 300 9 370 -21 q 180 95 231 39 q 102 231 130 151 q 75 410 75 311 q 102 588 75 509 q 180 723 130 667 q 299 809 230 779 q 454 839 369 839 q 609 809 539 839 q 730 723 680 779 q 808 588 781 667 q 836 410 836 509 q 808 231 836 311 q 731 95 781 151 q 611 9 681 39 q 455 -21 541 -21 m 408 969 q 402 939 408 953 q 385 914 395 925 q 360 897 374 903 q 330 891 346 891 q 300 897 314 891 q 275 914 286 903 q 258 939 264 925 q 252 969 252 953 q 258 999 252 985 q 275 1024 264 1013 q 300 1041 286 1034 q 330 1047 314 1047 q 360 1041 346 1047 q 385 1024 374 1034 q 402 999 395 1013 q 408 969 408 985 m 655 969 q 649 939 655 953 q 632 914 643 925 q 607 897 621 903 q 578 891 593 891 q 547 897 562 891 q 523 914 533 903 q 506 939 512 925 q 500 969 500 953 q 506 999 500 985 q 523 1024 512 1013 q 547 1041 533 1034 q 578 1047 562 1047 q 607 1041 593 1047 q 632 1024 621 1034 q 649 999 643 1013 q 655 969 655 985 z "},"×":{"ha":604,"x_min":90,"x_max":517,"o":"m 90 293 l 231 429 l 90 566 l 159 643 l 306 501 l 448 637 l 514 562 l 378 432 l 517 298 l 448 221 l 303 359 l 156 218 l 90 293 z "},"Ø":{"ha":909,"x_min":74,"x_max":835,"o":"m 685 764 q 795 620 756 709 q 835 410 835 530 q 807 231 835 311 q 730 95 780 151 q 610 9 680 39 q 454 -21 540 -21 q 393 -17 422 -21 q 336 -4 363 -12 l 294 -96 l 192 -96 l 251 35 q 121 183 168 87 q 74 410 74 279 q 101 588 74 509 q 179 723 129 667 q 299 809 229 779 q 453 839 368 839 q 604 810 536 839 l 647 904 l 749 904 l 685 764 m 454 745 q 339 722 388 745 q 257 656 290 699 q 208 551 224 613 q 192 410 192 489 q 217 239 192 311 q 292 125 241 168 l 565 724 q 514 739 541 734 q 454 745 486 745 m 717 410 q 698 560 717 495 q 642 668 680 625 l 376 83 q 413 76 393 78 q 454 74 433 74 q 570 97 520 74 q 652 163 619 119 q 701 268 684 206 q 717 410 717 330 z "},"Ù":{"ha":935,"x_min":35,"x_max":901,"o":"m 461 74 q 554 92 517 74 q 615 142 592 109 q 647 223 637 176 q 657 330 657 271 l 657 722 l 568 722 l 568 818 l 901 818 l 901 722 l 768 722 l 768 326 q 756 200 768 254 q 722 108 743 146 q 670 44 700 69 q 607 5 641 19 q 535 -15 572 -9 q 461 -21 498 -21 q 390 -15 425 -21 q 321 5 354 -9 q 261 44 289 19 q 213 108 233 69 q 180 200 192 146 q 168 326 168 254 l 168 722 l 35 722 l 35 818 l 368 818 l 368 722 l 279 722 l 279 317 q 289 211 279 256 q 319 135 298 165 q 375 89 340 104 q 461 74 410 74 m 486 942 l 474 892 l 124 957 l 149 1059 l 486 942 z "},"Ú":{"ha":935,"x_min":35,"x_max":901,"o":"m 461 74 q 554 92 517 74 q 615 142 592 109 q 647 223 637 176 q 657 330 657 271 l 657 722 l 568 722 l 568 818 l 901 818 l 901 722 l 768 722 l 768 326 q 756 200 768 254 q 722 108 743 146 q 670 44 700 69 q 607 5 641 19 q 535 -15 572 -9 q 461 -21 498 -21 q 390 -15 425 -21 q 321 5 354 -9 q 261 44 289 19 q 213 108 233 69 q 180 200 192 146 q 168 326 168 254 l 168 722 l 35 722 l 35 818 l 368 818 l 368 722 l 279 722 l 279 317 q 289 211 279 256 q 319 135 298 165 q 375 89 340 104 q 461 74 410 74 m 753 1053 l 778 951 l 428 886 l 416 936 l 753 1053 z "},"Û":{"ha":935,"x_min":35,"x_max":901,"o":"m 468 1080 l 677 932 l 652 887 l 468 979 l 283 887 l 258 932 l 468 1080 m 461 74 q 554 92 517 74 q 615 142 592 109 q 647 223 637 176 q 657 330 657 271 l 657 722 l 568 722 l 568 818 l 901 818 l 901 722 l 768 722 l 768 326 q 756 200 768 254 q 722 108 743 146 q 670 44 700 69 q 607 5 641 19 q 535 -15 572 -9 q 461 -21 498 -21 q 390 -15 425 -21 q 321 5 354 -9 q 261 44 289 19 q 213 108 233 69 q 180 200 192 146 q 168 326 168 254 l 168 722 l 35 722 l 35 818 l 368 818 l 368 722 l 279 722 l 279 317 q 289 211 279 256 q 319 135 298 165 q 375 89 340 104 q 461 74 410 74 z "},"Ü":{"ha":935,"x_min":35,"x_max":901,"o":"m 461 74 q 554 92 517 74 q 615 142 592 109 q 647 223 637 176 q 657 330 657 271 l 657 722 l 568 722 l 568 818 l 901 818 l 901 722 l 768 722 l 768 326 q 756 200 768 254 q 722 108 743 146 q 670 44 700 69 q 607 5 641 19 q 535 -15 572 -9 q 461 -21 498 -21 q 390 -15 425 -21 q 321 5 354 -9 q 261 44 289 19 q 213 108 233 69 q 180 200 192 146 q 168 326 168 254 l 168 722 l 35 722 l 35 818 l 368 818 l 368 722 l 279 722 l 279 317 q 289 211 279 256 q 319 135 298 165 q 375 89 340 104 q 461 74 410 74 m 422 969 q 416 939 422 953 q 399 914 410 925 q 374 897 389 903 q 345 891 360 891 q 314 897 328 891 q 290 914 300 903 q 273 939 279 925 q 267 969 267 953 q 273 999 267 985 q 290 1024 279 1013 q 314 1041 300 1034 q 345 1047 328 1047 q 374 1041 360 1047 q 399 1024 389 1034 q 416 999 410 1013 q 422 969 422 985 m 669 969 q 663 939 669 953 q 646 914 657 925 q 622 897 635 903 q 592 891 608 891 q 562 897 576 891 q 537 914 547 903 q 520 939 526 925 q 514 969 514 953 q 520 999 514 985 q 537 1024 526 1013 q 562 1041 547 1034 q 592 1047 576 1047 q 622 1041 608 1047 q 646 1024 635 1034 q 663 999 657 1013 q 669 969 669 985 z "},"Ý":{"ha":920,"x_min":15,"x_max":908,"o":"m 15 818 l 347 818 l 347 722 l 273 722 l 469 478 l 656 722 l 579 722 l 579 818 l 908 818 l 908 722 l 775 722 l 518 385 l 515 96 l 646 96 l 646 0 l 275 0 l 275 96 l 406 96 l 407 380 l 132 722 l 15 722 l 15 818 m 747 1053 l 772 951 l 422 886 l 410 936 l 747 1053 z "},"Þ":{"ha":691,"x_min":66,"x_max":640,"o":"m 309 528 l 309 289 l 367 289 q 395 290 379 289 q 429 294 412 290 q 463 305 446 297 q 493 327 479 313 q 514 363 506 341 q 522 418 522 385 q 507 484 522 461 q 469 516 492 506 q 417 527 446 526 q 364 528 389 528 l 309 528 m 66 96 l 196 96 l 196 722 l 66 722 l 66 818 l 472 818 l 472 722 l 309 722 l 309 624 l 375 624 q 488 614 439 624 q 572 581 538 604 q 623 517 606 557 q 640 418 640 477 q 623 321 640 363 q 574 250 606 279 q 500 207 543 222 q 404 192 456 192 l 307 192 l 307 96 l 473 96 l 473 0 l 66 0 l 66 96 z "},"ß":{"ha":825,"x_min":65,"x_max":781,"o":"m 65 86 l 182 86 l 182 510 l 65 510 l 65 596 l 182 596 l 182 657 q 196 759 182 715 q 239 832 210 803 q 316 877 269 862 q 430 892 363 892 q 529 879 486 892 q 601 842 572 865 q 645 785 630 818 q 659 714 659 753 q 648 653 659 680 q 620 605 637 627 q 584 567 603 584 q 547 532 564 549 q 519 498 530 515 q 508 460 508 481 q 516 429 508 442 q 539 405 524 416 q 575 385 554 394 q 628 364 597 376 q 688 335 659 353 q 737 293 716 317 q 770 234 758 268 q 781 155 781 200 q 765 80 781 113 q 722 25 749 47 q 660 -9 695 3 q 585 -21 624 -21 q 507 -12 540 -21 q 450 10 474 -2 q 407 40 425 22 l 385 164 l 475 183 l 488 102 q 510 85 498 92 q 542 73 523 78 q 586 68 560 68 q 625 74 607 68 q 655 93 642 81 q 675 120 668 104 q 682 155 682 136 q 671 201 682 182 q 645 234 661 220 q 609 255 629 247 q 559 274 589 264 q 499 303 530 284 q 445 346 467 323 q 411 395 423 369 q 399 450 399 422 q 411 518 399 490 q 440 567 422 546 q 478 605 458 589 q 516 637 498 621 q 545 672 534 654 q 557 714 557 690 q 549 745 557 729 q 527 774 542 761 q 489 795 511 787 q 437 803 467 803 q 364 792 393 803 q 319 761 335 782 q 296 708 302 739 q 290 635 290 676 l 290 0 l 65 0 l 65 86 z "},"à":{"ha":710,"x_min":54,"x_max":705,"o":"m 96 452 l 119 578 q 176 597 144 589 q 240 610 203 604 q 320 616 277 616 q 426 605 382 616 q 496 573 469 593 q 540 526 524 553 q 563 470 555 500 q 571 410 570 441 q 572 350 572 378 l 572 109 l 705 65 l 677 -24 l 489 40 q 405 -2 454 16 q 294 -21 355 -21 q 193 -7 237 -21 q 118 32 149 7 q 71 91 87 57 q 54 164 55 124 q 72 247 54 212 q 121 303 90 281 q 195 336 153 326 q 285 346 237 346 l 465 345 l 465 355 q 465 392 465 373 q 462 431 465 412 q 452 468 459 450 q 429 498 444 485 q 388 520 413 512 q 324 528 362 528 q 248 522 280 528 q 199 511 216 517 l 185 435 l 96 452 m 299 68 q 355 73 330 68 q 402 86 381 78 q 438 103 422 94 q 465 121 454 113 l 465 257 l 288 258 q 242 255 264 258 q 203 243 220 252 q 176 215 186 233 q 165 165 165 196 q 176 122 165 140 q 205 92 187 104 q 248 74 224 79 q 299 68 273 68 m 445 713 l 420 668 l 96 815 l 145 907 l 445 713 z "},"á":{"ha":710,"x_min":54,"x_max":705,"o":"m 96 452 l 119 578 q 176 597 144 589 q 240 610 203 604 q 320 616 277 616 q 426 605 382 616 q 496 573 469 593 q 540 526 524 553 q 563 470 555 500 q 571 410 570 441 q 572 350 572 378 l 572 109 l 705 65 l 677 -24 l 489 40 q 405 -2 454 16 q 294 -21 355 -21 q 193 -7 237 -21 q 118 32 149 7 q 71 91 87 57 q 54 164 55 124 q 72 247 54 212 q 121 303 90 281 q 195 336 153 326 q 285 346 237 346 l 465 345 l 465 355 q 465 392 465 373 q 462 431 465 412 q 452 468 459 450 q 429 498 444 485 q 388 520 413 512 q 324 528 362 528 q 248 522 280 528 q 199 511 216 517 l 185 435 l 96 452 m 299 68 q 355 73 330 68 q 402 86 381 78 q 438 103 422 94 q 465 121 454 113 l 465 257 l 288 258 q 242 255 264 258 q 203 243 220 252 q 176 215 186 233 q 165 165 165 196 q 176 122 165 140 q 205 92 187 104 q 248 74 224 79 q 299 68 273 68 m 530 905 l 578 814 l 254 667 l 230 711 l 530 905 z "},"â":{"ha":710,"x_min":54,"x_max":705,"o":"m 96 452 l 119 578 q 176 597 144 589 q 240 610 203 604 q 320 616 277 616 q 426 605 382 616 q 496 573 469 593 q 540 526 524 553 q 563 470 555 500 q 571 410 570 441 q 572 350 572 378 l 572 109 l 705 65 l 677 -24 l 489 40 q 405 -2 454 16 q 294 -21 355 -21 q 193 -7 237 -21 q 118 32 149 7 q 71 91 87 57 q 54 164 55 124 q 72 247 54 212 q 121 303 90 281 q 195 336 153 326 q 285 346 237 346 l 465 345 l 465 355 q 465 392 465 373 q 462 431 465 412 q 452 468 459 450 q 429 498 444 485 q 388 520 413 512 q 324 528 362 528 q 248 522 280 528 q 199 511 216 517 l 185 435 l 96 452 m 299 68 q 355 73 330 68 q 402 86 381 78 q 438 103 422 94 q 465 121 454 113 l 465 257 l 288 258 q 242 255 264 258 q 203 243 220 252 q 176 215 186 233 q 165 165 165 196 q 176 122 165 140 q 205 92 187 104 q 248 74 224 79 q 299 68 273 68 m 332 907 l 542 758 l 517 713 l 332 806 l 148 713 l 123 758 l 332 907 z "},"ã":{"ha":710,"x_min":54,"x_max":705,"o":"m 96 452 l 119 578 q 176 597 144 589 q 240 610 203 604 q 320 616 277 616 q 426 605 382 616 q 496 573 469 593 q 540 526 524 553 q 563 470 555 500 q 571 410 570 441 q 572 350 572 378 l 572 109 l 705 65 l 677 -24 l 489 40 q 405 -2 454 16 q 294 -21 355 -21 q 193 -7 237 -21 q 118 32 149 7 q 71 91 87 57 q 54 164 55 124 q 72 247 54 212 q 121 303 90 281 q 195 336 153 326 q 285 346 237 346 l 465 345 l 465 355 q 465 392 465 373 q 462 431 465 412 q 452 468 459 450 q 429 498 444 485 q 388 520 413 512 q 324 528 362 528 q 248 522 280 528 q 199 511 216 517 l 185 435 l 96 452 m 299 68 q 355 73 330 68 q 402 86 381 78 q 438 103 422 94 q 465 121 454 113 l 465 257 l 288 258 q 242 255 264 258 q 203 243 220 252 q 176 215 186 233 q 165 165 165 196 q 176 122 165 140 q 205 92 187 104 q 248 74 224 79 q 299 68 273 68 m 361 852 q 384 836 372 844 q 406 820 395 827 q 430 809 418 813 q 458 804 443 804 q 500 814 477 804 q 555 847 524 823 l 601 793 q 567 766 585 780 q 529 742 549 753 q 488 723 509 730 q 443 716 466 716 q 403 723 423 716 q 361 744 382 729 q 338 761 349 752 q 315 776 327 769 q 291 788 303 783 q 263 793 278 793 q 220 783 244 793 q 166 749 197 773 l 121 804 q 154 830 136 817 q 192 854 172 844 q 234 872 212 865 q 278 880 255 880 q 318 873 298 880 q 361 852 339 867 z "},"ä":{"ha":710,"x_min":54,"x_max":705,"o":"m 96 452 l 119 578 q 176 597 144 589 q 240 610 203 604 q 320 616 277 616 q 426 605 382 616 q 496 573 469 593 q 540 526 524 553 q 563 470 555 500 q 571 410 570 441 q 572 350 572 378 l 572 109 l 705 65 l 677 -24 l 489 40 q 405 -2 454 16 q 294 -21 355 -21 q 193 -7 237 -21 q 118 32 149 7 q 71 91 87 57 q 54 164 55 124 q 72 247 54 212 q 121 303 90 281 q 195 336 153 326 q 285 346 237 346 l 465 345 l 465 355 q 465 392 465 373 q 462 431 465 412 q 452 468 459 450 q 429 498 444 485 q 388 520 413 512 q 324 528 362 528 q 248 522 280 528 q 199 511 216 517 l 185 435 l 96 452 m 299 68 q 355 73 330 68 q 402 86 381 78 q 438 103 422 94 q 465 121 454 113 l 465 257 l 288 258 q 242 255 264 258 q 203 243 220 252 q 176 215 186 233 q 165 165 165 196 q 176 122 165 140 q 205 92 187 104 q 248 74 224 79 q 299 68 273 68 m 290 786 q 283 756 290 770 q 266 731 277 742 q 241 714 256 720 q 212 708 227 708 q 181 714 195 708 q 157 731 168 720 q 140 756 146 742 q 134 786 134 770 q 140 816 134 802 q 157 841 146 830 q 181 858 168 851 q 212 864 195 864 q 241 858 227 864 q 266 841 256 851 q 283 816 277 830 q 290 786 290 802 m 536 786 q 530 756 536 770 q 513 731 524 742 q 489 714 503 720 q 459 708 475 708 q 429 714 443 708 q 404 731 414 720 q 387 756 393 742 q 381 786 381 770 q 387 816 381 802 q 404 841 393 830 q 429 858 414 851 q 459 864 443 864 q 489 858 475 864 q 513 841 503 851 q 530 816 524 830 q 536 786 536 802 z "},"å":{"ha":710,"x_min":54,"x_max":705,"o":"m 96 452 l 119 578 q 176 597 144 589 q 240 610 203 604 q 320 616 277 616 q 426 605 382 616 q 496 573 469 593 q 540 526 524 553 q 563 470 555 500 q 571 410 570 441 q 572 350 572 378 l 572 109 l 705 65 l 677 -24 l 489 40 q 405 -2 454 16 q 294 -21 355 -21 q 193 -7 237 -21 q 118 32 149 7 q 71 91 87 57 q 54 164 55 124 q 72 247 54 212 q 121 303 90 281 q 195 336 153 326 q 285 346 237 346 l 465 345 l 465 355 q 465 392 465 373 q 462 431 465 412 q 452 468 459 450 q 429 498 444 485 q 388 520 413 512 q 324 528 362 528 q 248 522 280 528 q 199 511 216 517 l 185 435 l 96 452 m 299 68 q 355 73 330 68 q 402 86 381 78 q 438 103 422 94 q 465 121 454 113 l 465 257 l 288 258 q 242 255 264 258 q 203 243 220 252 q 176 215 186 233 q 165 165 165 196 q 176 122 165 140 q 205 92 187 104 q 248 74 224 79 q 299 68 273 68 m 220 785 q 230 831 220 810 q 256 869 239 853 q 294 895 272 886 q 340 905 315 905 q 386 895 364 905 q 424 869 408 886 q 450 831 440 853 q 459 785 459 810 q 450 739 459 761 q 424 701 440 718 q 386 675 408 685 q 340 666 364 666 q 294 675 315 666 q 256 701 272 685 q 230 739 239 718 q 220 785 220 761 m 286 785 q 290 765 286 774 q 302 747 294 755 q 319 735 309 740 q 340 731 329 731 q 360 735 351 731 q 378 747 370 740 q 390 765 385 755 q 394 785 394 774 q 390 806 394 796 q 378 823 385 816 q 360 835 370 831 q 340 840 351 840 q 319 835 329 840 q 302 823 309 831 q 290 806 294 816 q 286 785 286 796 z "},"æ":{"ha":1095,"x_min":54,"x_max":1025,"o":"m 763 -21 q 637 1 693 -21 q 541 66 581 24 q 494 39 523 54 q 430 11 465 24 q 359 -12 395 -3 q 294 -21 323 -21 q 192 -7 237 -21 q 117 33 148 7 q 70 93 86 58 q 54 168 54 127 q 73 249 54 215 q 122 304 91 282 q 196 336 154 326 q 285 346 237 346 l 465 345 l 465 355 l 465 387 q 461 437 465 412 q 444 482 458 462 q 401 515 429 502 q 324 528 373 528 q 248 522 279 528 q 199 511 216 517 l 185 435 l 96 452 l 119 578 q 199 604 149 591 q 320 616 250 616 q 399 607 365 616 q 460 581 434 597 q 506 543 487 564 q 536 498 524 522 q 582 545 557 524 q 638 583 608 567 q 704 607 669 598 q 780 616 740 616 q 874 604 830 616 q 952 560 919 591 q 1005 477 985 529 q 1024 345 1024 425 q 1020 272 1024 311 l 572 269 q 626 120 578 172 q 764 68 673 68 q 836 75 804 68 q 895 92 869 81 q 941 113 921 102 q 975 136 961 125 l 1025 71 q 1008 56 1025 70 q 957 24 991 41 q 875 -7 924 7 q 763 -21 826 -21 m 299 68 q 350 74 323 68 q 403 89 377 79 q 453 109 429 98 q 496 132 477 121 q 462 257 469 186 l 288 258 q 242 255 264 258 q 203 242 220 252 q 176 214 186 233 q 165 165 165 196 q 176 122 165 140 q 205 92 187 104 q 248 74 224 79 q 299 68 273 68 m 777 528 q 701 516 736 528 q 641 482 667 505 q 597 428 614 460 q 574 355 580 396 l 926 357 q 889 484 924 441 q 777 528 854 528 z "},"ç":{"ha":654,"x_min":65,"x_max":603,"o":"m 498 414 l 481 510 q 445 521 472 514 q 370 528 418 528 q 225 468 273 528 q 176 298 176 408 q 225 129 176 189 q 370 68 273 68 q 428 73 400 68 q 479 87 455 79 q 522 106 503 96 q 557 127 541 117 l 603 60 q 584 46 603 59 q 534 19 566 34 q 459 -8 502 4 q 368 -21 416 -21 l 354 -21 l 354 -74 q 466 -99 427 -74 q 505 -182 505 -125 q 492 -234 505 -212 q 459 -269 480 -255 q 411 -289 438 -283 q 354 -296 384 -296 q 293 -288 320 -296 q 247 -270 266 -279 q 217 -252 227 -260 q 205 -244 206 -244 l 236 -193 q 283 -218 254 -206 q 351 -229 313 -229 q 410 -217 392 -229 q 428 -182 428 -205 q 425 -163 428 -172 q 412 -148 422 -154 q 385 -138 403 -142 q 336 -135 367 -135 l 285 -135 l 285 -11 q 194 28 235 1 q 125 94 153 54 q 81 184 96 133 q 65 298 65 236 q 87 432 65 373 q 150 532 109 491 q 245 595 190 573 q 368 616 301 616 q 437 613 407 616 q 490 606 467 610 q 530 595 513 601 q 558 583 547 589 l 587 433 l 498 414 z "},"è":{"ha":697,"x_min":64,"x_max":634,"o":"m 367 -21 q 244 1 300 -21 q 148 64 189 23 q 86 164 108 105 q 64 298 64 224 q 86 432 64 373 q 148 532 108 491 q 244 595 189 573 q 367 616 300 616 q 474 601 422 616 q 562 547 525 585 q 616 441 598 508 q 624 273 634 375 l 176 271 q 230 121 182 174 q 368 68 278 68 q 456 78 417 68 q 522 102 494 89 q 579 136 555 117 l 629 71 q 612 56 629 70 q 561 24 595 41 q 479 -7 528 7 q 367 -21 430 -21 m 368 528 q 238 483 286 528 q 178 357 191 439 l 529 358 q 487 485 528 442 q 368 528 447 528 m 463 711 l 437 667 l 114 814 l 163 905 l 463 711 z "},"é":{"ha":697,"x_min":64,"x_max":634,"o":"m 560 904 l 609 812 l 285 665 l 260 710 l 560 904 m 367 -21 q 244 1 300 -21 q 148 64 189 23 q 86 164 108 105 q 64 298 64 224 q 86 432 64 373 q 148 532 108 491 q 244 595 189 573 q 367 616 300 616 q 474 601 422 616 q 562 547 525 585 q 616 441 598 508 q 624 273 634 375 l 176 271 q 230 121 182 174 q 368 68 278 68 q 456 78 417 68 q 522 102 494 89 q 579 136 555 117 l 629 71 q 612 56 629 70 q 561 24 595 41 q 479 -7 528 7 q 367 -21 430 -21 m 368 528 q 238 483 286 528 q 178 357 191 439 l 529 358 q 487 485 528 442 q 368 528 447 528 z "},"ê":{"ha":697,"x_min":64,"x_max":634,"o":"m 367 -21 q 244 1 300 -21 q 148 64 189 23 q 86 164 108 105 q 64 298 64 224 q 86 432 64 373 q 148 532 108 491 q 244 595 189 573 q 367 616 300 616 q 474 601 422 616 q 562 547 525 585 q 616 441 598 508 q 624 273 634 375 l 176 271 q 230 121 182 174 q 368 68 278 68 q 456 78 417 68 q 522 102 494 89 q 579 136 555 117 l 629 71 q 612 56 629 70 q 561 24 595 41 q 479 -7 528 7 q 367 -21 430 -21 m 368 528 q 238 483 286 528 q 178 357 191 439 l 529 358 q 487 485 528 442 q 368 528 447 528 m 364 907 l 574 758 l 549 713 l 364 806 l 180 713 l 155 758 l 364 907 z "},"ë":{"ha":697,"x_min":64,"x_max":634,"o":"m 367 -21 q 244 1 300 -21 q 148 64 189 23 q 86 164 108 105 q 64 298 64 224 q 86 432 64 373 q 148 532 108 491 q 244 595 189 573 q 367 616 300 616 q 474 601 422 616 q 562 547 525 585 q 616 441 598 508 q 624 273 634 375 l 176 271 q 230 121 182 174 q 368 68 278 68 q 456 78 417 68 q 522 102 494 89 q 579 136 555 117 l 629 71 q 612 56 629 70 q 561 24 595 41 q 479 -7 528 7 q 367 -21 430 -21 m 368 528 q 238 483 286 528 q 178 357 191 439 l 529 358 q 487 485 528 442 q 368 528 447 528 m 313 786 q 306 756 313 770 q 289 731 300 742 q 264 714 279 720 q 235 708 250 708 q 204 714 218 708 q 180 731 191 720 q 163 756 169 742 q 157 786 157 770 q 163 816 157 802 q 180 841 169 830 q 204 858 191 851 q 235 864 218 864 q 264 858 250 864 q 289 841 279 851 q 306 816 300 830 q 313 786 313 802 m 559 786 q 553 756 559 770 q 536 731 547 742 q 512 714 526 720 q 482 708 498 708 q 452 714 466 708 q 427 731 437 720 q 410 756 416 742 q 404 786 404 770 q 410 816 404 802 q 427 841 416 830 q 452 858 437 851 q 482 864 466 864 q 512 858 498 864 q 536 841 526 851 q 553 816 547 830 q 559 786 559 802 z "},"ì":{"ha":439,"x_min":-32,"x_max":404,"o":"m 64 596 l 288 596 l 288 86 l 404 86 l 404 0 l 64 0 l 64 86 l 180 86 l 180 510 l 64 510 l 64 596 m 317 711 l 292 667 l -32 814 l 17 905 l 317 711 z "},"í":{"ha":439,"x_min":64,"x_max":460,"o":"m 64 596 l 288 596 l 288 86 l 404 86 l 404 0 l 64 0 l 64 86 l 180 86 l 180 510 l 64 510 l 64 596 m 412 905 l 460 814 l 136 667 l 112 711 l 412 905 z "},"î":{"ha":439,"x_min":14,"x_max":433,"o":"m 64 596 l 288 596 l 288 86 l 404 86 l 404 0 l 64 0 l 64 86 l 180 86 l 180 510 l 64 510 l 64 596 m 223 907 l 433 758 l 408 713 l 223 806 l 39 713 l 14 758 l 223 907 z "},"ï":{"ha":439,"x_min":31,"x_max":434,"o":"m 64 596 l 288 596 l 288 86 l 404 86 l 404 0 l 64 0 l 64 86 l 180 86 l 180 510 l 64 510 l 64 596 m 187 786 q 181 756 187 770 q 164 731 174 742 q 139 714 153 720 q 109 708 125 708 q 79 714 93 708 q 54 731 65 720 q 37 756 43 742 q 31 786 31 770 q 37 816 31 802 q 54 841 43 830 q 79 858 65 851 q 109 864 93 864 q 139 858 125 864 q 164 841 153 851 q 181 816 174 830 q 187 786 187 802 m 434 786 q 428 756 434 770 q 411 731 422 742 q 386 714 400 720 q 357 708 372 708 q 326 714 340 708 q 301 731 312 720 q 285 756 291 742 q 279 786 279 770 q 285 816 279 802 q 301 841 291 830 q 326 858 312 851 q 357 864 340 864 q 386 858 372 864 q 411 841 400 851 q 428 816 422 830 q 434 786 434 802 z "},"ð":{"ha":753,"x_min":64,"x_max":672,"o":"m 236 722 l 283 775 q 144 829 220 804 l 163 905 q 264 874 220 889 q 345 842 308 859 l 408 913 l 465 857 l 417 803 q 528 714 484 761 q 604 612 572 667 q 653 494 635 556 q 672 364 670 431 q 648 192 672 265 q 583 72 625 119 q 486 1 542 24 q 367 -22 431 -22 q 253 -3 307 -22 q 156 57 198 17 q 89 156 114 96 q 64 296 64 216 q 86 429 64 370 q 148 529 108 488 q 244 592 189 570 q 367 614 300 614 q 395 613 379 614 q 429 609 411 612 q 466 601 447 606 q 505 587 486 595 q 438 673 474 637 q 357 736 402 709 l 293 667 l 236 722 m 368 525 q 223 465 272 525 q 175 296 175 405 q 223 126 175 186 q 368 66 272 66 q 451 85 415 66 q 512 138 488 103 q 550 224 537 174 q 563 340 563 275 q 556 414 563 382 q 541 479 550 446 q 507 498 526 490 q 464 513 487 507 q 417 522 441 519 q 368 525 393 525 z "},"ñ":{"ha":870,"x_min":52,"x_max":840,"o":"m 81 616 l 265 553 q 296 570 275 559 q 343 591 316 581 q 405 609 371 602 q 475 616 438 616 q 589 602 542 616 q 666 558 636 587 q 710 484 696 528 q 724 382 724 440 l 724 86 l 840 86 l 840 0 l 553 0 l 553 86 l 615 86 l 615 359 q 609 428 615 397 q 586 481 603 458 q 541 515 570 503 q 468 528 513 528 q 398 520 430 528 q 343 504 367 513 q 293 481 316 494 l 293 86 l 355 86 l 355 0 l 68 0 l 68 86 l 185 86 l 185 485 l 52 530 l 81 616 m 465 852 q 488 836 477 844 q 511 820 499 827 q 535 809 522 813 q 562 804 547 804 q 605 814 581 804 q 660 847 629 823 l 705 793 q 672 766 690 780 q 634 742 654 753 q 592 723 614 730 q 547 716 570 716 q 507 723 528 716 q 465 744 487 729 q 443 761 454 752 q 419 776 431 769 q 395 788 408 783 q 368 793 382 793 q 325 783 349 793 q 271 749 301 773 l 225 804 q 259 830 241 817 q 297 854 277 844 q 338 872 317 865 q 382 880 359 880 q 423 873 402 880 q 465 852 444 867 z "},"ò":{"ha":739,"x_min":64,"x_max":675,"o":"m 367 -21 q 244 1 300 -21 q 148 63 189 22 q 86 163 108 104 q 64 297 64 222 q 86 431 64 372 q 148 531 108 490 q 244 594 189 572 q 367 616 300 616 q 493 594 436 616 q 590 531 550 572 q 653 431 631 490 q 675 297 675 372 q 653 163 675 222 q 590 63 631 104 q 493 1 550 22 q 367 -21 436 -21 m 368 528 q 223 467 272 528 q 175 297 175 406 q 223 128 175 188 q 368 68 272 68 q 515 127 467 68 q 564 297 564 187 q 515 467 564 406 q 368 528 466 528 m 437 711 l 412 667 l 89 814 l 138 905 l 437 711 z "},"ó":{"ha":739,"x_min":64,"x_max":675,"o":"m 367 -21 q 244 1 300 -21 q 148 63 189 22 q 86 163 108 104 q 64 297 64 222 q 86 431 64 372 q 148 531 108 490 q 244 594 189 572 q 367 616 300 616 q 493 594 436 616 q 590 531 550 572 q 653 431 631 490 q 675 297 675 372 q 653 163 675 222 q 590 63 631 104 q 493 1 550 22 q 367 -21 436 -21 m 368 528 q 223 467 272 528 q 175 297 175 406 q 223 128 175 188 q 368 68 272 68 q 515 127 467 68 q 564 297 564 187 q 515 467 564 406 q 368 528 466 528 m 588 905 l 637 814 l 313 667 l 288 711 l 588 905 z "},"ô":{"ha":739,"x_min":64,"x_max":675,"o":"m 367 -21 q 244 1 300 -21 q 148 63 189 22 q 86 163 108 104 q 64 297 64 222 q 86 431 64 372 q 148 531 108 490 q 244 594 189 572 q 367 616 300 616 q 493 594 436 616 q 590 531 550 572 q 653 431 631 490 q 675 297 675 372 q 653 163 675 222 q 590 63 631 104 q 493 1 550 22 q 367 -21 436 -21 m 368 528 q 223 467 272 528 q 175 297 175 406 q 223 128 175 188 q 368 68 272 68 q 515 127 467 68 q 564 297 564 187 q 515 467 564 406 q 368 528 466 528 m 371 907 l 581 758 l 555 713 l 371 806 l 186 713 l 161 758 l 371 907 z "},"õ":{"ha":739,"x_min":64,"x_max":675,"o":"m 367 -21 q 244 1 300 -21 q 148 63 189 22 q 86 163 108 104 q 64 297 64 222 q 86 431 64 372 q 148 531 108 490 q 244 594 189 572 q 367 616 300 616 q 493 594 436 616 q 590 531 550 572 q 653 431 631 490 q 675 297 675 372 q 653 163 675 222 q 590 63 631 104 q 493 1 550 22 q 367 -21 436 -21 m 368 528 q 223 467 272 528 q 175 297 175 406 q 223 128 175 188 q 368 68 272 68 q 515 127 467 68 q 564 297 564 187 q 515 467 564 406 q 368 528 466 528 m 373 852 q 396 836 385 844 q 418 820 407 827 q 443 809 430 813 q 470 804 455 804 q 513 814 489 804 q 568 847 536 823 l 613 793 q 579 766 597 780 q 542 742 562 753 q 500 723 522 730 q 455 716 478 716 q 415 723 435 716 q 373 744 395 729 q 350 761 361 752 q 327 776 339 769 q 303 788 315 783 q 275 793 290 793 q 233 783 256 793 q 178 749 209 773 l 133 804 q 166 830 149 817 q 204 854 184 844 q 246 872 224 865 q 290 880 267 880 q 331 873 310 880 q 373 852 351 867 z "},"ö":{"ha":739,"x_min":64,"x_max":675,"o":"m 367 -21 q 244 1 300 -21 q 148 63 189 22 q 86 163 108 104 q 64 297 64 222 q 86 431 64 372 q 148 531 108 490 q 244 594 189 572 q 367 616 300 616 q 493 594 436 616 q 590 531 550 572 q 653 431 631 490 q 675 297 675 372 q 653 163 675 222 q 590 63 631 104 q 493 1 550 22 q 367 -21 436 -21 m 368 528 q 223 467 272 528 q 175 297 175 406 q 223 128 175 188 q 368 68 272 68 q 515 127 467 68 q 564 297 564 187 q 515 467 564 406 q 368 528 466 528 m 324 786 q 318 756 324 770 q 301 731 311 742 q 276 714 290 720 q 246 708 262 708 q 216 714 230 708 q 191 731 202 720 q 174 756 180 742 q 168 786 168 770 q 174 816 168 802 q 191 841 180 830 q 216 858 202 851 q 246 864 230 864 q 276 858 262 864 q 301 841 290 851 q 318 816 311 830 q 324 786 324 802 m 571 786 q 565 756 571 770 q 548 731 559 742 q 523 714 537 720 q 494 708 509 708 q 463 714 477 708 q 438 731 449 720 q 422 756 428 742 q 416 786 416 770 q 422 816 416 802 q 438 841 428 830 q 463 858 449 851 q 494 864 477 864 q 523 858 509 864 q 548 841 537 851 q 565 816 559 830 q 571 786 571 802 z "},"÷":{"ha":670,"x_min":77,"x_max":593,"o":"m 77 463 l 593 463 l 593 367 l 77 367 l 77 463 m 429 191 q 422 157 429 173 q 404 130 415 141 q 376 111 392 118 q 343 104 360 104 q 310 111 326 104 q 282 130 294 118 q 264 157 271 141 q 257 191 257 173 q 264 223 257 208 q 282 251 271 239 q 310 270 294 262 q 343 277 326 277 q 376 270 360 277 q 404 251 392 262 q 422 223 415 239 q 429 191 429 208 m 429 633 q 422 600 429 616 q 404 572 415 584 q 376 554 392 561 q 343 547 360 547 q 310 554 326 547 q 282 572 294 561 q 264 600 271 584 q 257 633 257 616 q 264 666 257 650 q 282 693 271 682 q 310 712 294 705 q 343 720 326 720 q 376 712 360 720 q 404 693 392 705 q 422 666 415 682 q 429 633 429 650 z "},"ø":{"ha":739,"x_min":64,"x_max":675,"o":"m 367 -21 q 289 -12 323 -21 l 254 -100 l 165 -100 l 213 16 q 103 124 142 52 q 64 297 64 195 q 86 431 64 372 q 148 531 108 490 q 244 594 189 572 q 367 616 300 616 q 454 606 414 616 l 489 692 l 576 692 l 529 576 q 637 468 598 538 q 675 297 675 397 q 653 163 675 222 q 590 63 631 104 q 493 1 550 22 q 367 -21 436 -21 m 368 528 q 223 467 272 528 q 175 297 175 406 q 193 180 175 229 q 249 103 210 132 l 420 522 q 395 527 408 526 q 368 528 382 528 m 564 297 q 547 411 564 363 q 493 488 530 459 l 323 72 q 368 68 345 68 q 515 127 467 68 q 564 297 564 187 z "},"ù":{"ha":840,"x_min":28,"x_max":814,"o":"m 458 596 l 684 596 l 684 109 l 814 64 l 787 -25 l 597 40 q 565 22 585 33 q 518 2 545 12 q 460 -14 492 -7 q 393 -21 428 -21 q 279 -6 327 -21 q 202 38 232 9 q 158 112 172 68 q 144 214 144 155 l 144 510 l 28 510 l 28 596 l 253 596 l 253 236 q 259 169 253 199 q 282 115 265 138 q 327 80 298 93 q 400 68 355 68 q 470 75 438 68 q 525 92 501 82 q 575 115 552 102 l 575 510 l 458 510 l 458 596 m 406 713 l 381 668 l 58 815 l 106 907 l 406 713 z "},"ú":{"ha":840,"x_min":28,"x_max":814,"o":"m 458 596 l 684 596 l 684 109 l 814 64 l 787 -25 l 597 40 q 565 22 585 33 q 518 2 545 12 q 460 -14 492 -7 q 393 -21 428 -21 q 279 -6 327 -21 q 202 38 232 9 q 158 112 172 68 q 144 214 144 155 l 144 510 l 28 510 l 28 596 l 253 596 l 253 236 q 259 169 253 199 q 282 115 265 138 q 327 80 298 93 q 400 68 355 68 q 470 75 438 68 q 525 92 501 82 q 575 115 552 102 l 575 510 l 458 510 l 458 596 m 657 905 l 706 814 l 382 667 l 357 711 l 657 905 z "},"û":{"ha":840,"x_min":28,"x_max":814,"o":"m 458 596 l 684 596 l 684 109 l 814 64 l 787 -25 l 597 40 q 565 22 585 33 q 518 2 545 12 q 460 -14 492 -7 q 393 -21 428 -21 q 279 -6 327 -21 q 202 38 232 9 q 158 112 172 68 q 144 214 144 155 l 144 510 l 28 510 l 28 596 l 253 596 l 253 236 q 259 169 253 199 q 282 115 265 138 q 327 80 298 93 q 400 68 355 68 q 470 75 438 68 q 525 92 501 82 q 575 115 552 102 l 575 510 l 458 510 l 458 596 m 404 907 l 614 758 l 589 713 l 404 806 l 220 713 l 195 758 l 404 907 z "},"ü":{"ha":840,"x_min":28,"x_max":814,"o":"m 458 596 l 684 596 l 684 109 l 814 64 l 787 -25 l 597 40 q 565 22 585 33 q 518 2 545 12 q 460 -14 492 -7 q 393 -21 428 -21 q 279 -6 327 -21 q 202 38 232 9 q 158 112 172 68 q 144 214 144 155 l 144 510 l 28 510 l 28 596 l 253 596 l 253 236 q 259 169 253 199 q 282 115 265 138 q 327 80 298 93 q 400 68 355 68 q 470 75 438 68 q 525 92 501 82 q 575 115 552 102 l 575 510 l 458 510 l 458 596 m 361 786 q 355 756 361 770 q 338 731 349 742 q 313 714 328 720 q 283 708 299 708 q 253 714 267 708 q 229 731 239 720 q 212 756 218 742 q 205 786 205 770 q 212 816 205 802 q 229 841 218 830 q 253 858 239 851 q 283 864 267 864 q 313 858 299 864 q 338 841 328 851 q 355 816 349 830 q 361 786 361 802 m 608 786 q 602 756 608 770 q 585 731 596 742 q 561 714 574 720 q 531 708 547 708 q 500 714 515 708 q 476 731 486 720 q 459 756 465 742 q 453 786 453 770 q 459 816 453 802 q 476 841 465 830 q 500 858 486 851 q 531 864 515 864 q 561 858 547 864 q 585 841 574 851 q 602 816 596 830 q 608 786 608 802 z "},"ý":{"ha":806,"x_min":20,"x_max":786,"o":"m 20 596 l 309 596 l 309 510 l 231 510 l 418 40 l 585 510 l 508 510 l 508 596 l 786 596 l 786 510 l 686 510 l 455 -138 q 372 -268 423 -226 q 241 -310 320 -310 q 211 -308 227 -310 q 182 -303 195 -306 q 161 -299 169 -301 q 153 -296 153 -296 l 170 -212 q 199 -219 185 -216 q 223 -223 210 -222 q 247 -225 237 -225 q 273 -221 258 -225 q 302 -207 288 -218 q 332 -176 317 -196 q 358 -123 347 -156 l 369 -92 l 119 510 l 20 510 l 20 596 m 647 905 l 696 814 l 372 667 l 347 711 l 647 905 z "},"þ":{"ha":736,"x_min":-22,"x_max":673,"o":"m 333 -289 l -8 -289 l -8 -203 l 109 -203 l 109 774 l -22 817 l 5 905 l 216 833 l 216 572 q 289 603 249 590 q 376 616 330 616 q 497 597 442 616 q 591 539 551 577 q 652 445 630 500 q 673 315 673 389 q 651 179 673 241 q 589 73 629 117 q 494 4 549 28 q 371 -21 438 -21 q 287 -14 324 -21 q 216 3 249 -7 l 216 -203 l 333 -203 l 333 -289 m 370 68 q 453 86 417 68 q 514 137 490 104 q 550 215 538 170 q 562 315 562 260 q 375 528 562 528 q 321 523 345 528 q 277 510 296 518 q 242 493 257 503 q 216 476 227 484 l 216 103 q 274 79 237 90 q 370 68 311 68 z "},"ÿ":{"ha":806,"x_min":20,"x_max":786,"o":"m 20 596 l 309 596 l 309 510 l 231 510 l 418 40 l 585 510 l 508 510 l 508 596 l 786 596 l 786 510 l 686 510 l 455 -138 q 372 -268 423 -226 q 241 -310 320 -310 q 211 -308 227 -310 q 182 -303 195 -306 q 161 -299 169 -301 q 153 -296 153 -296 l 170 -212 q 199 -219 185 -216 q 223 -223 210 -222 q 247 -225 237 -225 q 273 -221 258 -225 q 302 -207 288 -218 q 332 -176 317 -196 q 358 -123 347 -156 l 369 -92 l 119 510 l 20 510 l 20 596 m 362 786 q 356 756 362 770 q 339 731 349 742 q 314 714 328 720 q 284 708 300 708 q 254 714 268 708 q 229 731 240 720 q 212 756 218 742 q 206 786 206 770 q 212 816 206 802 q 229 841 218 830 q 254 858 240 851 q 284 864 268 864 q 314 858 300 864 q 339 841 328 851 q 356 816 349 830 q 362 786 362 802 m 609 786 q 603 756 609 770 q 586 731 597 742 q 561 714 575 720 q 532 708 547 708 q 501 714 515 708 q 476 731 487 720 q 460 756 466 742 q 454 786 454 770 q 460 816 454 802 q 476 841 466 830 q 501 858 487 851 q 532 864 515 864 q 561 858 547 864 q 586 841 575 851 q 603 816 597 830 q 609 786 609 802 z "},"ı":{"ha":439,"x_min":64,"x_max":404,"o":"m 64 596 l 288 596 l 288 86 l 404 86 l 404 0 l 64 0 l 64 86 l 180 86 l 180 510 l 64 510 l 64 596 z "},"Œ":{"ha":1237,"x_min":77,"x_max":1179,"o":"m 1179 214 l 1106 0 l 487 0 q 326 28 400 0 q 196 108 251 56 q 109 237 140 161 q 77 410 77 313 q 108 609 77 530 q 194 734 138 688 q 327 799 250 781 q 498 818 404 818 l 1078 818 l 1151 604 l 1059 574 l 1004 722 l 709 722 l 709 471 l 966 471 l 966 375 l 708 375 l 708 96 l 1031 96 l 1087 244 l 1179 214 m 498 724 q 372 713 428 724 q 277 670 316 703 q 216 575 237 637 q 195 410 195 513 q 275 172 195 250 q 512 94 354 94 l 597 96 l 597 724 l 498 724 z "},"œ":{"ha":1061,"x_min":62,"x_max":994,"o":"m 730 -21 q 627 -6 673 -21 q 542 37 581 9 q 463 -3 507 14 q 366 -21 418 -21 q 243 3 298 -21 q 147 70 187 26 q 84 174 106 113 q 62 310 62 235 q 86 433 62 377 q 150 530 109 490 q 247 594 191 571 q 366 616 302 616 q 477 602 429 616 q 559 570 524 587 q 637 605 594 593 q 730 616 680 616 q 829 604 782 616 q 912 559 876 591 q 969 473 948 527 q 991 338 991 420 q 990 306 991 323 q 987 272 989 290 l 541 269 q 593 120 546 172 q 732 68 641 68 q 804 74 772 68 q 863 91 837 81 q 909 113 889 101 q 943 136 929 125 l 994 71 q 976 56 994 70 q 925 24 958 41 q 842 -7 891 7 q 730 -21 793 -21 m 428 297 q 444 414 428 361 q 490 507 460 467 q 440 521 471 515 q 367 528 410 528 q 287 511 323 528 q 226 466 251 494 q 187 397 201 437 q 174 311 174 357 q 186 212 174 256 q 222 135 198 167 q 282 85 246 103 q 367 68 319 68 q 432 77 404 68 q 484 98 460 86 q 442 186 456 137 q 428 297 428 235 m 732 528 q 602 483 649 528 q 542 355 555 437 l 893 357 q 851 485 892 441 q 732 528 810 528 z "},"ˆ":{"ha":476,"x_min":25,"x_max":444,"o":"m 235 872 l 444 724 l 419 679 l 235 771 l 50 679 l 25 724 l 235 872 z "},"ˇ":{"ha":482,"x_min":25,"x_max":444,"o":"m 25 810 l 50 854 l 235 762 l 419 854 l 444 810 l 235 661 l 25 810 z "},"˚":{"ha":335,"x_min":46,"x_max":285,"o":"m 46 987 q 56 1034 46 1012 q 81 1072 65 1055 q 119 1097 98 1088 q 165 1107 141 1107 q 212 1097 190 1107 q 250 1072 233 1088 q 275 1034 266 1055 q 285 987 285 1012 q 275 941 285 963 q 250 903 266 920 q 212 878 233 887 q 165 868 190 868 q 119 878 141 868 q 81 903 98 887 q 56 941 65 920 q 46 987 46 963 m 111 987 q 116 967 111 977 q 127 949 120 957 q 145 938 135 942 q 165 933 155 933 q 186 938 176 933 q 203 949 196 942 q 215 967 211 957 q 220 987 220 977 q 215 1008 220 998 q 203 1025 211 1018 q 186 1037 196 1033 q 165 1042 176 1042 q 145 1037 155 1042 q 127 1025 135 1033 q 116 1008 120 1018 q 111 987 111 998 z "},"˜":{"ha":802,"x_min":161,"x_max":642,"o":"m 401 811 q 424 794 413 803 q 447 779 435 786 q 471 767 458 772 q 498 763 484 763 q 541 772 517 763 q 596 806 565 782 l 642 751 q 608 725 626 739 q 570 700 590 711 q 528 682 550 689 q 484 675 507 675 q 444 681 464 675 q 401 703 423 688 q 379 719 390 711 q 356 735 368 728 q 331 747 344 742 q 304 751 319 751 q 261 742 285 751 q 207 708 237 732 l 161 762 q 195 789 177 775 q 233 813 213 802 q 274 831 253 824 q 319 838 296 838 q 359 832 338 838 q 401 811 380 825 z "},"–":{"ha":825,"x_min":94,"x_max":731,"o":"m 94 370 l 731 370 l 731 273 l 94 273 l 94 370 z "},"—":{"ha":1127,"x_min":92,"x_max":1036,"o":"m 92 368 l 1036 368 l 1036 272 l 92 272 l 92 368 z "},"‘":{"ha":341,"x_min":77,"x_max":262,"o":"m 77 615 q 82 656 77 635 q 95 695 87 676 q 115 733 104 715 q 137 768 125 751 q 199 840 164 805 l 248 799 q 224 762 235 781 q 203 726 214 745 q 184 688 192 706 q 209 682 196 686 q 233 669 222 678 q 254 642 246 658 q 262 607 262 626 q 255 572 262 587 q 235 545 248 556 q 207 527 223 533 q 171 521 190 521 q 135 528 153 521 q 105 549 118 536 q 84 578 92 562 q 77 615 77 595 z "},"’":{"ha":332,"x_min":82,"x_max":267,"o":"m 267 746 q 261 705 267 726 q 248 666 256 685 q 229 628 239 646 q 206 593 218 610 q 144 521 179 556 l 96 562 q 119 600 107 581 q 140 635 129 616 q 159 673 151 654 q 134 679 147 675 q 111 692 121 684 q 90 719 98 703 q 82 754 82 735 q 89 789 82 773 q 108 817 96 805 q 136 834 120 828 q 172 840 153 840 q 208 833 191 840 q 238 812 225 825 q 259 782 251 800 q 267 746 267 765 z "},"‚":{"ha":357,"x_min":87,"x_max":272,"o":"m 272 57 q 267 16 272 37 q 253 -23 262 -4 q 234 -61 245 -43 q 204 -106 223 -79 q 150 -168 184 -133 l 101 -126 q 125 -90 113 -109 q 145 -54 134 -73 q 165 -16 157 -35 q 140 -10 153 -14 q 115 4 127 -5 q 95 30 103 14 q 87 65 87 46 q 94 100 87 84 q 113 127 101 116 q 142 145 125 139 q 178 151 158 151 q 213 144 196 151 q 243 123 231 136 q 264 93 256 111 q 272 57 272 76 z "},"“":{"ha":598,"x_min":77,"x_max":519,"o":"m 334 615 q 339 656 334 635 q 352 695 344 676 q 372 733 361 715 q 394 768 382 751 q 456 840 421 805 l 505 799 q 481 762 492 781 q 460 726 471 745 q 441 688 449 706 q 466 682 453 686 q 490 669 479 678 q 511 642 503 658 q 519 607 519 626 q 512 572 519 587 q 492 545 505 556 q 464 527 480 533 q 428 521 447 521 q 392 528 410 521 q 362 549 375 536 q 341 578 349 562 q 334 615 334 595 m 77 615 q 82 656 77 635 q 95 695 87 676 q 115 733 104 715 q 137 768 125 751 q 199 840 164 805 l 248 799 q 224 762 235 781 q 203 726 214 745 q 184 688 192 706 q 209 682 196 686 q 233 669 222 678 q 254 642 246 658 q 262 607 262 626 q 255 572 262 587 q 235 545 248 556 q 207 527 223 533 q 171 521 190 521 q 135 528 153 521 q 105 549 118 536 q 84 578 92 562 q 77 615 77 595 z "},"”":{"ha":589,"x_min":82,"x_max":524,"o":"m 524 746 q 518 705 524 726 q 505 666 513 685 q 486 628 496 646 q 463 593 475 610 q 401 521 436 556 l 353 562 q 376 600 364 581 q 397 635 386 616 q 416 673 408 654 q 391 679 404 675 q 368 692 378 684 q 347 719 355 703 q 339 754 339 735 q 346 789 339 773 q 365 817 353 805 q 393 834 377 828 q 429 840 410 840 q 465 833 448 840 q 495 812 482 825 q 516 782 508 800 q 524 746 524 765 m 267 746 q 261 705 267 726 q 248 666 256 685 q 229 628 239 646 q 206 593 218 610 q 144 521 179 556 l 96 562 q 119 600 107 581 q 140 635 129 616 q 159 673 151 654 q 134 679 147 675 q 111 692 121 684 q 90 719 98 703 q 82 754 82 735 q 89 789 82 773 q 108 817 96 805 q 136 834 120 828 q 172 840 153 840 q 208 833 191 840 q 238 812 225 825 q 259 782 251 800 q 267 746 267 765 z "},"„":{"ha":614,"x_min":87,"x_max":529,"o":"m 529 57 q 524 16 529 37 q 510 -23 519 -4 q 491 -61 502 -43 q 461 -106 480 -79 q 407 -168 441 -133 l 358 -126 q 382 -90 370 -109 q 402 -54 391 -73 q 422 -16 414 -35 q 397 -10 410 -14 q 372 4 384 -5 q 352 30 360 14 q 345 65 345 46 q 351 100 345 84 q 370 127 358 116 q 399 145 382 139 q 435 151 415 151 q 470 144 453 151 q 500 123 488 136 q 521 93 513 111 q 529 57 529 76 m 272 57 q 267 16 272 37 q 253 -23 262 -4 q 234 -61 245 -43 q 204 -106 223 -79 q 150 -168 184 -133 l 101 -126 q 125 -90 113 -109 q 145 -54 134 -73 q 165 -16 157 -35 q 140 -10 153 -14 q 115 4 127 -5 q 95 30 103 14 q 87 65 87 46 q 94 100 87 84 q 113 127 101 116 q 142 145 125 139 q 178 151 158 151 q 213 144 196 151 q 243 123 231 136 q 264 93 256 111 q 272 57 272 76 z "},"•":{"ha":473,"x_min":76,"x_max":398,"o":"m 76 441 q 89 504 76 475 q 123 555 102 534 q 175 590 145 577 q 237 603 204 603 q 300 590 271 603 q 351 555 329 577 q 386 504 373 534 q 398 441 398 475 q 386 379 398 408 q 351 328 373 350 q 300 293 329 306 q 237 281 271 281 q 175 293 204 281 q 123 328 145 306 q 89 379 102 350 q 76 441 76 408 z "},"‹":{"ha":418,"x_min":54,"x_max":344,"o":"m 344 52 l 275 3 l 54 301 l 275 600 l 344 551 l 166 301 l 344 52 z "},"›":{"ha":418,"x_min":75,"x_max":365,"o":"m 252 301 l 75 551 l 144 600 l 365 301 l 144 3 l 75 52 l 252 301 z "},"⁄":{"ha":471,"x_min":-12,"x_max":481,"o":"m 78 -106 l -12 -106 l 392 905 l 481 905 l 78 -106 z "},"⁴":{"ha":541,"x_min":58,"x_max":458,"o":"m 378 464 l 378 393 l 455 393 l 455 326 l 212 326 l 212 393 l 299 393 l 299 464 l 58 464 l 58 505 l 218 863 l 287 822 l 188 618 l 148 530 l 299 530 l 299 760 l 380 760 l 378 530 l 458 532 l 458 464 l 378 464 z "},"€":{"ha":968,"x_min":54,"x_max":891,"o":"m 888 192 l 854 31 q 811 13 836 22 q 757 -4 787 3 q 689 -16 726 -12 q 605 -21 651 -21 q 471 -1 532 -21 q 362 56 410 18 q 280 146 314 93 q 229 267 246 199 l 54 267 l 77 363 l 211 363 q 209 390 210 376 q 208 446 208 404 l 54 446 l 76 542 l 224 542 q 275 667 241 612 q 357 760 309 722 q 468 819 406 798 q 604 839 530 839 q 721 828 673 838 q 801 806 770 818 q 846 784 831 794 q 861 774 860 774 l 891 612 l 795 591 l 768 711 q 707 734 747 723 q 605 745 667 745 q 436 692 502 745 q 344 542 370 639 l 686 542 l 664 446 l 329 446 q 329 389 329 398 q 330 363 329 380 l 644 363 l 622 267 l 349 267 q 441 123 376 173 q 605 74 506 74 q 700 84 657 74 q 768 103 742 94 l 794 214 l 888 192 z "},"−":{"ha":696,"x_min":100,"x_max":596,"o":"m 100 460 l 596 460 l 596 364 l 100 364 l 100 460 z "},"":{"ha":453,"x_min":45,"x_max":407,"o":"m 382 1053 l 407 951 l 57 886 l 45 936 l 382 1053 z "},"":{"ha":465,"x_min":52,"x_max":414,"o":"m 414 942 l 401 892 l 52 957 l 77 1059 l 414 942 z "}}}
